<?xml version="1.0" standalone="no"?>
<!DOCTYPE svg PUBLIC "-//W3C//DTD SVG 20010904//EN"
 "http://www.w3.org/TR/2001/REC-SVG-20010904/DTD/svg10.dtd">
<svg version="1.0" xmlns="http://www.w3.org/2000/svg"
 width="1960.000000pt" height="1960.000000pt" viewBox="0 0 1960.000000 1960.000000"
 preserveAspectRatio="xMidYMid meet">
<metadata>
Created by potrace 1.11, written by Peter Selinger 2001-2013
</metadata>
<g transform="translate(0.000000,1960.000000) scale(0.100000,-0.100000)"
fill="#000000" stroke="none">
<path d="M4034 18980 c0 -13 4 -16 10 -10 7 7 7 13 0 20 -6 6 -10 3 -10 -10z"/>
<path d="M3995 18980 c3 -5 8 -10 11 -10 2 0 4 5 4 10 0 6 -5 10 -11 10 -5 0
-7 -4 -4 -10z"/>
<path d="M4060 18981 c0 -6 4 -13 10 -16 6 -3 7 1 4 9 -7 18 -14 21 -14 7z"/>
<path d="M7860 17680 c-6 -11 -15 -18 -21 -14 -5 3 -17 0 -25 -7 -12 -10 -18
-9 -31 4 -15 15 -17 15 -30 -1 -12 -16 -12 -15 -6 3 6 17 4 18 -9 8 -8 -7 -19
-9 -23 -5 -5 4 -6 0 -3 -9 5 -11 -5 -18 -37 -27 -23 -6 -56 -22 -71 -35 -16
-14 -52 -36 -80 -50 -27 -14 -56 -33 -64 -42 -8 -9 -31 -24 -52 -32 -21 -8
-49 -29 -63 -47 -14 -17 -29 -36 -33 -41 -5 -6 -6 -17 -4 -25 3 -8 1 -12 -3
-8 -9 9 -35 -16 -35 -34 0 -10 -3 -9 -10 2 -7 12 -10 12 -10 1 0 -8 -6 -11
-16 -7 -8 3 -12 2 -9 -4 3 -6 0 -11 -7 -11 -7 -1 -17 -2 -23 -4 -5 -1 -16 -3
-22 -3 -7 -1 -13 -10 -13 -19 0 -12 -3 -14 -11 -6 -8 8 -20 6 -45 -9 -19 -11
-34 -24 -34 -28 0 -4 -9 -6 -20 -3 -11 3 -27 0 -34 -7 -8 -6 -23 -11 -33 -10
-33 4 -43 0 -43 -17 0 -9 -3 -13 -6 -10 -4 3 -15 2 -25 -4 -13 -6 -19 -6 -19
1 0 6 -7 6 -19 -2 -10 -6 -17 -18 -14 -25 4 -9 0 -11 -11 -7 -16 6 -23 -10 -8
-19 4 -2 2 -2 -5 -1 -7 2 -15 -1 -19 -7 -3 -6 -12 -8 -19 -5 -9 3 -12 -2 -10
-15 4 -18 -6 -23 -45 -20 -9 0 -10 -2 -3 -5 7 -3 9 -12 6 -20 -3 -7 -9 -11
-14 -8 -10 6 -37 -7 -38 -18 -1 -5 -1 -15 -1 -24 0 -10 -5 -14 -16 -10 -8 3
-13 2 -9 -3 3 -5 -2 -16 -10 -25 -12 -11 -12 -16 -3 -22 9 -6 5 -10 -12 -14
-18 -4 -25 -12 -24 -28 1 -20 -7 -27 -30 -23 -5 1 -4 -5 4 -13 7 -9 9 -16 5
-16 -4 0 -1 -8 6 -17 12 -15 12 -16 -3 -10 -14 5 -18 1 -18 -16 0 -18 -2 -19
-11 -7 -8 11 -9 8 -4 -13 3 -16 2 -26 -3 -23 -12 7 -54 -23 -47 -35 4 -5 -3
-13 -14 -17 -19 -7 -21 -10 -21 -33 0 -5 -5 -7 -10 -4 -6 4 -7 11 -4 17 5 7 2
8 -5 4 -7 -5 -10 -15 -7 -23 4 -8 1 -11 -5 -8 -6 4 -13 -3 -16 -15 -4 -16 -8
-18 -14 -8 -7 10 -9 11 -9 0 0 -7 -4 -10 -10 -7 -5 3 -7 0 -4 -8 3 -9 -3 -17
-16 -20 -12 -3 -19 -10 -15 -16 3 -6 -1 -11 -9 -11 -9 0 -13 -6 -10 -14 4 -11
0 -13 -18 -8 -22 5 -22 5 -5 -21 11 -17 13 -25 4 -21 -14 5 -57 -31 -57 -48 0
-9 -3 -9 -11 -1 -8 8 -20 8 -43 -2 -17 -7 -37 -10 -43 -8 -7 3 -13 0 -13 -6 0
-5 -8 -8 -17 -7 -10 2 -27 -6 -38 -17 -11 -11 -13 -16 -5 -12 13 8 13 7 1 -8
-7 -9 -20 -17 -27 -17 -8 0 -14 -9 -14 -19 0 -11 -12 -30 -28 -43 -15 -13 -27
-32 -26 -45 1 -12 -5 -24 -12 -27 -9 -3 -11 1 -8 12 5 14 4 15 -4 2 -8 -10 -7
-19 1 -30 6 -8 7 -12 3 -8 -11 9 -39 -28 -32 -41 3 -5 -1 -12 -10 -15 -10 -4
-13 -2 -8 7 5 9 4 9 -6 0 -11 -10 -11 -15 1 -29 9 -12 10 -15 2 -10 -8 4 -13
2 -13 -4 0 -6 -4 -9 -9 -6 -5 4 -7 -2 -4 -13 3 -10 0 -22 -6 -25 -6 -4 -11
-14 -11 -22 0 -8 4 -12 10 -9 5 3 7 0 4 -9 -3 -8 -12 -12 -20 -9 -12 4 -14 0
-9 -20 4 -14 2 -28 -5 -32 -8 -5 -7 -11 2 -23 11 -14 10 -15 -6 -9 -16 6 -17
5 -6 -8 10 -12 10 -15 0 -15 -8 0 -11 -9 -8 -25 3 -14 1 -25 -5 -25 -6 0 -3
-6 8 -13 13 -10 16 -21 11 -41 -4 -17 -3 -25 3 -22 5 3 8 0 7 -6 -3 -21 -22
-50 -31 -49 -5 1 -11 -11 -13 -26 -2 -16 -10 -38 -18 -50 -12 -20 -12 -23 4
-32 10 -7 12 -11 4 -11 -7 0 -10 -4 -7 -10 3 -5 1 -10 -4 -10 -6 0 -11 -5 -11
-11 0 -5 5 -7 11 -3 8 4 8 0 0 -15 -7 -11 -19 -21 -27 -21 -10 0 -14 -6 -10
-15 3 -8 -1 -21 -9 -29 -8 -7 -12 -16 -9 -19 3 -3 -4 -8 -15 -12 -12 -3 -18
-12 -15 -20 3 -8 -3 -19 -14 -26 -11 -7 -18 -18 -15 -25 2 -6 0 -15 -6 -19 -6
-3 -11 -11 -11 -16 0 -6 4 -7 10 -4 6 3 7 -1 4 -9 -3 -9 -11 -13 -16 -10 -6 4
-5 -4 2 -16 8 -15 8 -20 1 -16 -6 4 -11 2 -11 -3 0 -6 5 -11 12 -11 6 0 1 -9
-11 -19 -14 -12 -18 -22 -11 -26 6 -3 8 -10 5 -15 -3 -5 -1 -11 5 -15 7 -4 7
-12 0 -24 -5 -10 -9 -38 -9 -62 0 -24 -1 -53 -2 -64 -4 -26 11 -104 20 -110 4
-2 7 -18 6 -34 -1 -17 2 -28 7 -25 5 3 8 -7 6 -23 -1 -15 4 -39 11 -52 7 -13
9 -21 3 -17 -12 7 -11 -102 1 -121 5 -7 5 -13 0 -13 -4 0 -2 -4 6 -9 11 -7 9
-13 -8 -30 -12 -12 -26 -19 -31 -16 -6 4 -10 1 -10 -4 0 -6 -9 -11 -19 -11
-11 0 -23 -5 -26 -10 -4 -6 -37 -26 -75 -45 -37 -19 -70 -40 -73 -47 -4 -11
-6 -11 -6 0 -1 8 -12 3 -28 -13 -16 -14 -38 -28 -50 -31 -13 -4 -23 -10 -23
-15 0 -5 -3 -8 -7 -7 -14 4 -53 -13 -53 -22 0 -5 -7 -7 -15 -4 -8 4 -15 1 -15
-6 0 -7 -7 -10 -15 -6 -9 3 -15 0 -15 -9 0 -12 -14 -20 -45 -27 -5 -1 -21 -12
-34 -24 -26 -24 -132 -80 -143 -76 -5 1 -8 -2 -8 -7 0 -5 -29 -22 -64 -39 -35
-17 -74 -39 -85 -49 -12 -10 -25 -18 -29 -18 -18 -1 -52 -27 -52 -40 0 -8 -9
-19 -20 -25 -11 -6 -20 -19 -20 -30 0 -14 -5 -18 -17 -13 -9 4 -14 2 -10 -3 3
-6 1 -16 -4 -24 -8 -13 -10 -13 -19 0 -6 9 -10 10 -10 3 0 -7 8 -17 18 -22 10
-6 12 -11 4 -11 -8 0 -10 -5 -6 -12 6 -10 4 -10 -8 0 -14 11 -16 10 -11 -9 5
-16 3 -20 -6 -14 -10 6 -11 3 -2 -13 6 -12 7 -23 2 -26 -10 -7 -9 -25 2 -43 4
-6 3 -15 -3 -18 -8 -5 -8 -11 0 -20 8 -10 8 -15 -1 -20 -8 -6 -7 -10 2 -16 11
-7 11 -9 -1 -9 -13 0 -13 -1 0 -10 13 -9 13 -10 0 -10 -9 -1 -6 -5 7 -10 15
-6 21 -15 18 -30 -3 -18 -2 -20 10 -10 10 9 15 6 21 -12 4 -13 7 -25 6 -28 0
-3 5 -12 12 -20 7 -8 19 -30 27 -47 8 -18 17 -33 20 -33 4 0 12 -12 18 -27 6
-16 20 -43 31 -61 11 -18 18 -38 15 -43 -4 -5 -1 -9 4 -9 6 0 11 -6 11 -13 0
-7 9 -20 20 -30 11 -9 20 -14 20 -11 0 3 7 -1 15 -10 8 -8 15 -19 15 -25 0 -6
7 -8 16 -4 14 5 15 3 4 -18 -12 -22 -12 -23 3 -10 11 9 17 10 17 2 0 -6 6 -11
14 -11 8 0 16 -7 20 -15 3 -8 11 -15 18 -15 9 0 8 3 -2 10 -10 7 -11 10 -2 10
7 0 15 -7 18 -15 4 -8 11 -12 16 -9 22 14 54 9 71 -11 13 -15 16 -16 11 -3 -4
11 0 16 13 15 10 -1 21 -6 25 -12 5 -6 8 -5 8 4 0 11 3 11 17 0 11 -10 14 -10
9 -1 -4 6 -2 12 3 12 6 0 11 -6 11 -12 0 -9 4 -8 10 2 5 8 10 11 10 6 0 -6 6
-2 13 9 8 10 19 15 25 11 7 -4 12 -2 12 4 0 7 7 10 15 6 10 -3 15 1 15 11 0 9
3 13 6 10 8 -7 36 7 65 31 11 9 23 17 27 17 4 0 18 10 31 22 13 12 28 20 33
17 4 -3 8 -1 8 4 0 5 11 14 25 20 27 12 52 16 43 6 -3 -3 5 -17 18 -31 13 -14
23 -31 22 -37 -2 -17 24 -66 33 -60 4 2 6 -5 4 -16 -2 -11 0 -20 6 -20 5 0 9
-7 9 -15 0 -7 6 -18 13 -22 18 -11 47 -75 39 -88 -3 -5 2 -4 11 4 15 12 17 11
17 -7 0 -11 7 -28 16 -36 8 -9 11 -16 4 -16 -6 0 0 -12 14 -27 14 -15 31 -41
38 -57 6 -17 15 -33 19 -36 3 -3 16 -26 28 -52 11 -26 26 -50 31 -53 6 -4 8
-11 5 -16 -4 -5 1 -12 9 -15 9 -3 13 -10 10 -15 -3 -5 0 -9 6 -9 6 0 9 -4 6
-9 -6 -8 34 -92 58 -121 6 -8 18 -28 26 -45 8 -16 17 -32 20 -35 3 -3 14 -24
24 -47 11 -24 22 -43 26 -43 6 0 41 -71 76 -157 10 -23 21 -40 25 -37 7 4 22
-28 24 -49 0 -4 6 -11 13 -16 8 -5 14 -12 14 -17 2 -23 11 -44 19 -44 5 0 9
-10 9 -22 0 -19 2 -20 10 -8 8 13 10 12 10 -2 0 -10 5 -18 11 -18 5 0 7 -4 4
-10 -3 -5 1 -10 9 -10 9 0 15 -3 14 -7 -3 -14 13 -73 20 -73 4 0 15 -18 25
-40 9 -22 21 -40 27 -40 5 0 10 -7 10 -15 0 -9 7 -18 15 -21 12 -5 13 -10 4
-20 -6 -8 -7 -14 -2 -14 9 0 44 -67 43 -82 0 -5 9 -17 19 -27 11 -11 36 -54
56 -97 20 -42 43 -84 51 -91 13 -14 18 -28 15 -46 -1 -5 3 -6 8 -3 5 4 15 -9
22 -28 7 -19 16 -33 20 -30 5 2 6 -4 4 -15 -2 -11 3 -25 10 -31 17 -14 9 -37
-24 -68 -15 -14 -25 -28 -24 -33 2 -5 -17 -27 -42 -50 -25 -23 -42 -46 -38
-52 4 -7 0 -8 -12 -3 -14 5 -16 4 -6 -8 9 -11 8 -15 -4 -20 -8 -3 -15 -12 -15
-21 0 -8 -7 -15 -17 -15 -9 0 -13 -3 -10 -7 4 -3 -2 -13 -13 -20 -11 -8 -18
-18 -15 -22 2 -5 -6 -17 -20 -27 -13 -10 -22 -21 -19 -26 3 -4 0 -8 -6 -8 -6
0 -8 -4 -5 -10 3 -5 1 -10 -5 -10 -7 0 -9 -7 -6 -16 6 -15 4 -15 -11 -3 -11 9
-14 10 -9 2 4 -8 2 -13 -6 -13 -9 0 -9 -3 2 -10 13 -9 13 -10 0 -11 -8 -1 -18
-1 -22 0 -4 0 -5 -5 -2 -13 3 -8 -4 -21 -16 -29 -14 -9 -19 -20 -15 -28 6 -8
4 -10 -4 -5 -8 5 -14 0 -18 -13 -3 -12 -9 -21 -14 -21 -5 0 -9 -7 -9 -15 0 -8
-4 -15 -9 -15 -5 0 -12 -14 -16 -30 -4 -17 -10 -28 -15 -25 -4 3 -10 -1 -13
-8 -3 -8 0 -14 6 -14 7 -1 114 -22 239 -48 l227 -47 27 21 c15 11 40 21 56 21
30 0 88 -25 88 -38 0 -4 136 -16 303 -25 166 -10 312 -20 324 -23 18 -3 26 3
42 35 89 173 341 154 410 -32 47 -124 -41 -266 -181 -292 -94 -18 -214 58
-241 152 l-14 48 -84 6 c-46 4 -138 10 -204 14 -66 4 -168 10 -227 13 l-107 7
-25 -32 c-32 -39 -72 -49 -120 -29 -20 8 -36 19 -36 23 -2 35 -34 46 -284 97
-263 53 -258 53 -271 16 -9 -26 -19 -39 -26 -35 -4 3 -6 -3 -4 -14 2 -11 -3
-22 -12 -25 -9 -4 -13 -9 -10 -13 4 -3 -1 -13 -11 -22 -10 -9 -17 -23 -17 -31
0 -8 -9 -23 -20 -33 -11 -10 -13 -15 -5 -11 11 5 10 2 -3 -13 -9 -11 -14 -23
-10 -26 3 -4 1 -7 -6 -7 -7 0 -10 -4 -6 -9 3 -5 1 -12 -5 -16 -6 -4 -7 -11 -4
-17 4 -6 2 -8 -4 -4 -10 6 -28 -30 -24 -46 1 -5 -3 -8 -9 -8 -5 0 -7 -5 -4
-10 3 -6 -1 -13 -10 -16 -13 -5 -13 -9 -3 -22 8 -10 8 -13 2 -9 -12 7 -26 -15
-28 -43 -1 -8 -7 -14 -13 -12 -7 1 -14 -2 -14 -8 -1 -5 -3 -14 -4 -20 -1 -5
-3 -17 -4 -25 0 -8 -10 -24 -21 -35 -12 -12 -15 -20 -8 -20 7 0 113 -18 235
-39 l222 -38 6 27 c9 43 70 106 120 126 165 62 327 -102 259 -264 -33 -80 -99
-125 -185 -126 -73 -1 -141 39 -179 104 l-26 45 -232 39 c-216 37 -232 41
-232 60 0 14 -7 6 -20 -23 -11 -24 -20 -49 -20 -57 0 -8 -4 -14 -10 -14 -5 0
-10 -9 -10 -19 0 -11 -6 -22 -12 -24 -10 -4 -10 -6 0 -6 10 -1 9 -8 -3 -31 -9
-17 -13 -35 -10 -40 3 -5 -3 -13 -12 -19 -10 -5 -15 -13 -11 -17 5 -4 3 -13
-3 -21 -11 -12 -14 -27 -18 -76 0 -10 -5 -16 -10 -13 -5 4 -8 -2 -6 -11 1 -10
0 -22 -4 -28 -6 -11 -12 -32 -13 -52 -1 -7 -5 -13 -10 -13 -5 0 -6 -4 -3 -10
3 -5 2 -10 -2 -10 -5 0 -10 -10 -10 -22 -2 -31 -8 -56 -15 -64 -4 -3 -4 -13
-1 -22 4 -9 2 -13 -4 -9 -6 4 -9 -6 -8 -23 1 -17 -2 -30 -8 -30 -5 0 -7 -7 -4
-15 4 -8 2 -17 -3 -20 -5 -3 -7 -14 -5 -25 2 -11 0 -20 -5 -20 -5 0 -7 -7 -4
-15 4 -8 2 -15 -3 -15 -5 0 -9 -8 -10 -18 -3 -32 -8 -47 -22 -58 -11 -9 -12
-12 -1 -19 9 -6 11 -4 5 5 -5 9 -4 11 3 6 9 -5 9 -13 2 -26 -5 -10 -7 -26 -4
-34 3 -9 1 -16 -4 -16 -6 0 -9 -9 -7 -20 2 -11 0 -20 -5 -20 -5 0 -7 -14 -5
-30 2 -16 0 -30 -5 -30 -4 0 -6 -9 -3 -20 3 -11 1 -20 -3 -20 -5 0 -9 -25 -10
-56 0 -30 -4 -58 -10 -62 -5 -4 -9 -44 -9 -89 0 -46 -2 -83 -5 -83 -7 0 -9
-19 -12 -102 -2 -36 -7 -64 -11 -61 -5 3 -4 -5 3 -17 10 -18 9 -24 -1 -31 -11
-7 -11 -9 1 -9 12 0 12 -2 1 -9 -7 -5 -9 -11 -4 -14 14 -9 9 -47 -8 -58 -10
-6 -10 -9 -1 -9 6 0 12 -7 12 -15 0 -8 -6 -15 -12 -15 -8 0 -9 -3 -3 -8 16
-11 19 -46 3 -36 -11 6 -11 5 0 -8 10 -13 10 -17 0 -21 -7 -3 -4 -6 7 -6 17
-1 17 -3 5 -11 -13 -9 -13 -10 0 -10 13 0 13 -1 0 -10 -8 -5 -11 -10 -6 -10 5
0 3 -7 -4 -15 -10 -12 -10 -15 1 -15 11 0 11 -2 -1 -10 -10 -6 -11 -10 -2 -10
14 0 12 -21 -3 -32 -6 -5 -5 -8 3 -8 6 0 12 -7 12 -15 0 -8 -6 -15 -12 -15 -9
0 -8 -4 2 -10 13 -9 13 -10 0 -10 -12 0 -12 -2 -2 -8 9 -6 12 -29 10 -75 -2
-37 -1 -67 2 -67 3 0 5 -33 5 -73 -1 -39 2 -76 5 -82 3 -5 6 -26 7 -45 3 -64
10 -106 18 -120 6 -9 4 -11 -5 -5 -10 6 -12 4 -6 -11 4 -10 9 -23 10 -29 1 -5
5 -16 9 -22 5 -8 3 -13 -4 -13 -8 0 -8 -4 -2 -12 6 -7 9 -24 8 -38 -1 -14 2
-28 8 -32 15 -9 19 -68 5 -68 -7 0 -3 -7 8 -15 14 -11 16 -15 4 -15 -13 -1
-13 -2 1 -10 11 -6 15 -22 14 -50 -1 -22 3 -40 8 -40 6 0 7 -3 4 -7 -4 -3 -1
-13 6 -21 10 -13 9 -14 -3 -7 -12 7 -13 6 -3 -7 7 -8 10 -18 6 -21 -3 -4 -1
-12 5 -19 10 -12 22 -62 25 -100 1 -10 4 -18 8 -18 3 0 5 -12 3 -27 -1 -15 4
-35 12 -44 8 -9 15 -33 16 -53 1 -20 5 -36 10 -36 4 0 7 -3 7 -7 -1 -5 -1 -10
1 -13 1 -3 3 -15 6 -27 8 -44 9 -48 16 -54 5 -3 9 -17 10 -32 1 -15 6 -27 11
-27 4 0 6 -4 3 -8 -3 -5 2 -21 10 -37 8 -16 13 -34 10 -41 -3 -7 2 -18 9 -24
12 -10 48 12 188 109 l174 122 1 53 c0 30 7 68 16 84 49 95 185 120 267 50
104 -91 63 -262 -71 -298 -45 -12 -113 1 -142 27 -15 14 -33 4 -195 -110 -161
-114 -180 -124 -195 -110 -15 14 -16 13 -11 -9 3 -12 10 -29 16 -35 5 -7 6
-13 3 -13 -4 0 -1 -10 6 -22 7 -13 11 -26 10 -31 -1 -4 3 -7 9 -7 6 0 9 -7 6
-15 -4 -8 -1 -17 5 -21 7 -5 8 -2 3 6 -5 9 -4 11 4 6 6 -4 9 -12 5 -17 -3 -5
0 -17 8 -26 9 -12 9 -15 1 -9 -9 5 -11 2 -7 -8 3 -9 10 -16 16 -16 5 0 7 -4 3
-9 -3 -5 2 -16 10 -25 8 -8 15 -19 14 -23 -2 -15 13 -53 22 -53 5 0 8 -3 7 -7
-1 -5 4 -24 11 -43 8 -19 14 -38 15 -42 1 -3 5 -10 10 -15 5 -5 6 -3 2 5 -4 6
-5 12 -3 12 12 0 356 91 375 100 13 6 22 18 22 31 0 35 36 83 80 108 102 57
226 -9 237 -126 15 -152 -155 -234 -273 -131 l-35 31 -182 -47 c-100 -26 -186
-52 -192 -58 -7 -8 -6 -9 1 -5 10 6 29 -20 24 -32 -1 -2 4 -7 11 -12 7 -4 14
-16 15 -26 2 -9 7 -19 13 -21 5 -2 7 -10 4 -18 -3 -8 0 -14 7 -14 6 0 9 -4 6
-8 -3 -5 4 -14 14 -22 10 -8 17 -17 14 -22 -3 -4 0 -8 6 -8 6 0 9 -4 5 -9 -3
-5 3 -17 12 -27 10 -9 18 -22 19 -28 0 -6 2 -17 2 -24 1 -7 7 -10 12 -7 6 3
10 -3 10 -15 0 -12 5 -18 10 -15 6 3 10 -1 10 -9 0 -9 4 -16 10 -16 5 0 7 -7
4 -15 -4 -9 0 -15 10 -15 9 0 16 -7 16 -15 0 -8 5 -15 11 -15 6 0 9 -7 5 -15
-3 -8 0 -14 7 -12 6 1 13 -8 15 -21 2 -12 8 -22 13 -22 5 0 9 -6 9 -12 0 -13
27 -50 72 -97 13 -14 16 -20 8 -15 -14 8 -14 7 0 -6 8 -8 24 -32 33 -52 10
-21 24 -38 32 -38 8 0 15 -7 15 -16 0 -9 5 -12 12 -8 7 4 8 3 4 -4 -4 -6 2
-19 14 -29 11 -10 20 -22 20 -27 0 -5 11 -19 24 -31 14 -13 22 -26 19 -29 -3
-3 6 -17 20 -30 14 -13 28 -21 31 -18 3 3 6 0 6 -7 0 -7 11 -22 24 -32 13 -10
27 -30 30 -44 4 -16 13 -25 26 -25 11 0 19 -3 18 -7 -3 -11 25 -53 36 -53 10
0 56 -51 56 -64 0 -4 7 -5 16 -2 8 3 12 2 9 -3 -3 -5 4 -16 15 -24 11 -7 18
-16 16 -18 -2 -2 2 -9 9 -16 11 -10 26 4 75 68 35 44 63 86 63 92 1 7 -10 35
-23 62 -58 123 -4 273 115 322 l45 18 0 100 c0 55 3 217 7 360 l6 260 -27 14
c-93 50 -91 195 5 259 29 20 43 23 91 19 31 -3 58 -1 60 3 2 5 35 42 73 82 39
40 129 136 201 213 l131 140 -26 55 c-82 179 38 382 235 398 89 7 155 -18 220
-82 145 -146 96 -381 -96 -463 -55 -24 -155 -21 -218 7 l-54 23 -27 -29 c-25
-26 -280 -300 -353 -379 -26 -29 -27 -32 -14 -75 l13 -45 242 -30 243 -31 14
27 c8 16 31 41 51 56 31 24 46 28 98 28 75 0 125 -29 155 -91 66 -134 -50
-279 -194 -243 -52 13 -112 67 -121 110 -4 17 -13 29 -22 29 -9 0 -124 14
-255 30 l-239 31 -37 -31 c-20 -16 -42 -30 -49 -30 -7 0 -13 -1 -13 -2 0 -2
-3 -161 -7 -355 l-6 -351 39 -11 c67 -18 133 -77 155 -139 l10 -29 293 80 292
80 1 48 c2 137 149 222 268 156 l46 -26 187 172 c102 95 210 195 239 222 l53
50 -15 44 c-35 97 16 203 117 245 121 51 263 -33 276 -162 15 -162 -148 -277
-290 -206 -29 15 -29 15 -168 -116 -9 -8 -92 -86 -186 -172 l-170 -156 4 -41
c6 -57 -13 -104 -58 -145 -68 -62 -158 -67 -231 -15 -15 10 -31 19 -36 19 -4
0 -143 -37 -309 -82 l-301 -82 -11 -41 c-40 -145 -188 -216 -334 -160 -11 4
-36 -20 -87 -84 l-71 -90 61 -61 c34 -33 65 -60 70 -60 5 0 9 -8 9 -17 0 -9 3
-14 6 -10 8 7 34 -17 34 -32 0 -6 3 -10 8 -10 20 3 32 -2 29 -13 -1 -7 7 -13
18 -13 11 0 21 -7 23 -16 2 -10 12 -19 24 -22 13 -4 17 -10 12 -18 -4 -7 -3
-10 4 -5 10 6 26 -10 27 -26 0 -3 4 -10 9 -15 5 -5 6 -3 2 5 -4 6 -3 12 2 12
6 0 13 -7 16 -16 4 -9 9 -14 12 -11 8 8 33 -16 27 -25 -2 -5 3 -8 11 -8 9 0
16 -7 16 -16 0 -8 4 -12 10 -9 6 3 10 0 10 -7 0 -9 3 -9 10 2 8 13 10 12 10
-2 0 -16 11 -23 33 -19 4 0 7 -9 7 -22 0 -16 3 -19 9 -8 7 11 12 7 25 -15 8
-16 15 -23 16 -16 0 7 5 10 10 7 6 -4 8 -10 5 -15 -3 -4 7 -11 20 -14 14 -4
23 -11 20 -16 -3 -6 6 -10 20 -10 20 0 26 -4 22 -14 -4 -9 -1 -13 6 -10 7 2
22 -5 34 -16 12 -11 27 -20 33 -20 5 0 10 -8 10 -17 0 -15 2 -16 10 -3 8 13
10 13 10 -2 0 -11 5 -15 15 -12 8 4 15 1 15 -7 0 -7 3 -10 6 -6 8 8 33 -16 27
-25 -2 -4 2 -5 10 -2 8 3 20 -2 27 -11 7 -8 21 -15 32 -15 10 0 16 -4 13 -10
-5 -9 15 -15 37 -11 5 0 7 -5 5 -12 -1 -6 6 -11 15 -11 10 1 15 -2 12 -7 -3
-5 4 -9 15 -9 12 0 21 -5 21 -11 0 -5 4 -7 10 -4 6 3 10 1 10 -5 0 -6 4 -9 9
-6 5 4 11 3 13 -2 6 -14 79 -52 89 -47 5 4 9 0 9 -8 0 -7 16 -19 35 -27 19 -8
35 -18 35 -22 0 -5 4 -7 9 -4 4 3 26 -3 48 -14 22 -10 46 -20 54 -22 7 -2 20
-9 27 -16 8 -7 17 -10 22 -7 5 3 10 0 12 -5 2 -6 13 -12 25 -13 12 0 19 -5 17
-9 -3 -4 -2 -8 3 -9 48 -4 75 -17 67 -30 -4 -8 -3 -9 5 -5 15 10 82 -15 74
-27 -3 -5 0 -7 8 -5 8 3 26 -1 42 -9 15 -7 27 -11 27 -8 0 4 12 -1 28 -9 15
-8 41 -18 57 -22 17 -4 33 -8 38 -9 4 -2 12 -3 18 -4 5 0 8 -5 5 -9 -2 -4 7
-9 22 -10 15 -1 28 -6 30 -12 2 -5 9 -7 17 -4 7 3 16 1 19 -4 3 -6 15 -8 25
-5 10 3 22 0 25 -6 4 -6 18 -11 32 -11 13 0 24 -4 24 -8 0 -7 24 -12 68 -15 6
0 12 -5 12 -10 0 -5 6 -7 14 -4 7 3 26 -1 41 -9 15 -8 40 -14 56 -14 16 0 29
-4 29 -8 0 -5 6 -9 13 -10 32 -3 84 -11 107 -17 14 -3 36 -8 50 -10 14 -2 36
-7 50 -10 14 -4 40 -8 58 -8 17 0 32 -4 32 -8 0 -4 12 -9 26 -12 30 -5 30 -6
54 105 17 77 17 84 2 92 -65 36 -110 125 -97 189 10 46 45 105 73 123 l25 16
-7 142 c-15 323 -19 394 -25 451 l-6 59 -42 8 c-98 16 -195 93 -239 191 -57
126 -30 271 68 369 70 70 126 93 233 93 78 0 97 -4 146 -28 184 -90 243 -316
129 -489 -32 -49 -116 -113 -163 -124 -16 -4 -31 -13 -34 -20 -2 -7 2 -145 11
-306 9 -161 16 -301 16 -310 0 -11 8 -18 20 -18 27 0 78 -26 111 -57 l27 -24
123 34 124 33 12 48 c17 69 51 113 107 141 214 107 405 -174 224 -329 -87 -75
-222 -63 -291 25 l-25 32 -122 -34 c-67 -18 -124 -38 -125 -44 -2 -5 -6 -27
-10 -49 -8 -49 -66 -112 -120 -130 l-40 -14 -19 -92 c-22 -104 -20 -108 47
-104 23 1 46 -1 52 -4 16 -10 35 -12 150 -16 61 -2 110 -5 110 -6 0 -11 544
-15 585 -5 14 4 75 8 137 10 61 1 117 6 124 11 7 4 42 9 78 11 58 2 106 8 106
13 0 3 39 9 74 11 20 2 41 6 46 9 6 4 19 7 30 8 22 2 60 10 60 12 0 1 12 3 26
4 14 2 31 6 37 10 7 4 12 2 12 -6 0 -10 2 -10 9 0 4 8 27 15 50 15 22 1 41 5
41 9 0 5 3 7 8 7 4 -1 9 0 12 1 10 3 45 10 65 12 11 1 23 6 26 11 6 9 45 17
91 20 15 1 24 5 22 9 -3 4 1 8 8 9 7 0 22 3 33 5 11 3 26 6 33 6 6 1 12 4 12
8 0 4 6 7 13 8 28 3 62 10 62 11 0 2 11 5 25 7 13 2 27 9 30 15 4 5 17 11 28
12 12 1 22 5 22 10 0 5 7 7 15 3 10 -3 15 1 15 12 0 12 3 13 8 5 7 -10 11 -10
24 0 11 9 31 123 78 445 l62 432 -40 40 c-64 61 -77 128 -39 203 l24 46 -108
143 c-75 98 -114 142 -126 141 -10 -1 -30 -4 -45 -7 -76 -12 -168 49 -188 126
-39 143 109 264 242 199 79 -39 118 -135 85 -213 l-16 -37 116 -153 115 -153
55 1 56 2 143 267 c79 147 144 271 144 275 0 4 -12 15 -26 24 -45 30 -101 130
-114 204 -28 153 55 309 198 375 72 33 208 31 282 -4 70 -34 133 -97 167 -168
23 -47 27 -70 28 -141 0 -77 -3 -92 -33 -152 -40 -81 -102 -139 -180 -168 -59
-22 -153 -29 -208 -16 l-32 7 -132 -248 c-73 -136 -140 -260 -149 -275 -14
-26 -14 -30 3 -59 10 -17 21 -54 25 -82 l6 -51 110 -62 c478 -268 560 -313
563 -310 2 2 28 151 58 331 l55 328 -22 15 c-25 17 -58 87 -59 121 0 14 9 43
20 66 57 117 230 110 276 -12 32 -83 3 -151 -82 -192 l-50 -24 -48 -291 c-26
-160 -50 -303 -53 -318 -4 -22 -2 -28 11 -28 9 0 19 7 22 15 4 8 10 12 15 9 5
-3 9 2 9 10 0 9 6 13 14 10 9 -3 19 5 28 23 7 15 19 29 26 29 6 1 15 3 20 4 4
1 10 2 14 1 4 0 4 7 1 16 -4 11 -3 14 5 9 7 -4 12 -2 12 6 0 10 3 9 11 -2 9
-12 10 -11 6 8 -3 12 -1 20 4 16 5 -3 20 6 34 20 14 15 30 26 36 26 6 0 7 5 4
10 -3 6 -1 10 6 10 6 0 18 8 25 18 13 16 14 16 8 -3 -5 -18 -4 -18 6 -2 6 9
26 32 45 50 19 19 31 38 27 43 -4 4 1 2 11 -5 15 -12 17 -12 11 3 -4 11 -1 16
10 16 9 0 16 5 16 11 0 6 11 20 25 31 14 11 23 24 19 29 -3 5 0 8 8 7 7 -2 12
3 10 10 -1 8 2 11 8 7 5 -3 13 1 16 9 3 9 12 16 20 16 8 0 14 9 14 21 0 11 4
18 9 14 5 -3 16 4 24 15 7 11 18 17 23 12 4 -4 2 1 -5 11 -12 15 -12 17 3 11
9 -3 16 -1 16 6 0 6 5 8 10 5 6 -4 9 -3 8 2 -2 4 14 24 35 44 20 20 33 40 29
45 -4 4 1 2 11 -5 15 -12 17 -12 11 3 -4 11 -1 16 10 16 9 0 16 4 16 9 0 5 20
29 45 55 25 25 45 47 45 48 -3 7 20 58 25 58 4 0 3 -6 -1 -12 -5 -9 -3 -9 9 1
9 7 14 18 10 24 -4 6 0 8 10 4 12 -4 14 -2 10 10 -5 12 -3 14 8 8 8 -4 11 -5
7 0 -11 11 11 47 24 39 6 -4 9 -3 6 2 -6 12 28 44 37 36 4 -4 4 3 1 16 -6 17
-3 22 9 22 12 0 15 5 11 16 -4 12 -2 15 9 10 9 -3 15 0 15 10 0 9 5 12 13 8 7
-5 6 0 -3 11 -8 10 -10 16 -4 12 6 -3 18 3 27 13 11 13 12 20 4 24 -7 2 -4 5
5 5 12 1 15 6 11 18 -4 11 -3 14 5 9 7 -4 12 -2 12 6 0 7 9 19 20 26 11 7 20
19 20 28 0 9 5 12 13 8 6 -4 9 -4 5 1 -11 12 11 47 25 38 7 -4 5 2 -3 13 -8
10 -11 16 -6 12 5 -4 15 -1 22 7 17 17 18 29 2 19 -7 -4 -3 3 9 15 12 11 21
27 19 34 -1 6 -1 9 1 5 6 -10 23 -10 22 0 -4 21 2 42 10 38 31 -20 0 54 -142
339 l-160 320 -38 1 c-132 4 -174 184 -58 246 112 60 242 -59 185 -170 -14
-27 -9 -38 131 -317 79 -160 147 -292 149 -295 7 -7 24 23 18 32 -3 4 7 15 21
24 21 14 23 19 13 32 -9 11 -9 14 -1 9 13 -8 37 26 26 36 -3 4 1 9 10 13 9 3
14 14 12 25 -2 11 0 17 6 14 5 -4 9 1 9 9 0 9 5 16 11 16 5 0 8 4 4 9 -3 5 -1
12 5 16 6 4 8 10 5 15 -3 5 2 13 11 18 9 5 15 12 15 15 -3 24 0 37 8 33 17
-11 17 18 1 53 -9 20 -88 233 -176 474 -159 437 -159 437 -185 432 -49 -11
-120 15 -165 61 -139 138 -26 364 169 341 67 -8 120 -46 152 -110 38 -77 29
-159 -24 -219 l-27 -31 154 -421 c85 -231 156 -423 158 -425 7 -8 33 33 34 52
0 9 8 17 18 18 9 0 12 3 6 5 -13 5 -7 44 7 44 4 0 6 9 4 20 -2 11 0 18 6 15 5
-4 10 -1 10 4 2 12 5 26 9 39 1 4 2 10 1 15 0 4 4 7 11 7 6 0 9 3 5 6 -3 4 0
22 8 40 8 19 11 34 7 34 -4 0 1 5 11 11 15 9 16 13 5 27 -8 9 -8 13 -1 9 14
-9 36 48 34 86 -2 15 2 27 8 27 6 0 10 3 9 8 -3 12 14 76 23 87 7 10 21 65 22
93 0 6 4 12 8 12 4 0 6 8 4 17 -1 10 0 23 4 28 6 11 8 17 10 41 0 8 4 13 9 11
4 -3 8 11 9 32 2 33 9 76 13 76 6 0 23 97 24 133 0 17 4 32 9 32 4 0 6 4 2 9
-3 5 -1 12 4 15 5 4 8 14 7 23 -2 9 3 39 9 67 7 28 10 61 8 74 -1 13 3 35 10
50 7 15 12 62 12 110 0 45 2 82 6 82 3 0 7 21 9 48 6 90 2 807 -5 832 -4 14
-8 59 -10 100 -2 41 -4 75 -5 75 -4 0 -11 42 -23 135 -2 14 -9 35 -15 47 -7
12 -9 24 -5 26 11 7 8 68 -4 75 -5 4 -10 21 -10 38 1 16 -2 34 -5 40 -3 5 -4
17 -3 27 2 9 -1 17 -7 17 -6 0 -8 6 -5 14 3 7 0 19 -6 25 -9 9 -9 14 1 20 11
7 10 10 -3 15 -9 3 -14 9 -11 14 2 4 1 14 -4 22 -5 9 -4 20 3 29 9 12 9 13 0
7 -12 -7 -17 6 -16 42 1 6 -3 12 -8 12 -5 0 -9 7 -9 16 0 9 5 13 13 9 6 -4 4
0 -7 9 -10 8 -16 22 -13 31 4 8 2 15 -4 15 -6 0 -8 9 -4 19 3 11 1 22 -5 26
-6 4 -9 14 -6 22 3 8 2 12 -3 8 -12 -7 -25 51 -15 66 4 8 3 9 -4 5 -12 -7 -15
1 -15 37 0 9 -3 17 -8 17 -4 0 -6 9 -4 20 2 11 0 20 -4 20 -5 0 -12 12 -16 28
-3 15 -14 35 -23 45 -15 17 -15 17 4 12 18 -6 18 -6 2 8 -10 8 -15 17 -11 20
3 4 2 7 -3 7 -5 0 -11 12 -12 27 -1 15 -5 29 -10 32 -4 3 -8 13 -10 21 -2 8
-8 17 -13 18 -6 2 -4 11 3 20 10 12 10 14 1 8 -9 -5 -13 0 -13 13 0 12 -5 21
-11 21 -6 0 -9 9 -6 20 3 12 0 20 -7 20 -12 0 -14 5 -18 49 -1 11 -6 17 -10
15 -7 -5 -12 10 -9 29 0 4 -3 7 -9 7 -5 0 -7 7 -4 15 4 9 -4 24 -17 36 -13 11
-18 18 -12 14 8 -3 6 6 -4 24 -10 16 -22 27 -28 23 -5 -3 -3 3 5 13 12 15 12
17 1 10 -11 -6 -13 -4 -8 8 3 9 0 18 -9 21 -9 3 -13 10 -10 15 4 5 -1 17 -10
25 -8 9 -12 16 -8 16 4 0 -2 9 -14 20 -25 23 -30 39 -7 20 13 -11 14 -10 9 4
-3 9 -10 16 -14 16 -5 0 -16 14 -24 32 -13 25 -14 33 -4 40 9 5 6 8 -9 8 -16
0 -23 6 -23 20 0 11 -4 20 -9 20 -5 0 -15 16 -22 35 -15 39 -29 47 -22 13 4
-21 -7 -28 -95 -66 -96 -42 -100 -45 -105 -79 -14 -81 -80 -137 -162 -137
-124 0 -200 124 -143 234 48 93 165 118 246 53 l38 -30 97 43 c87 38 98 41
106 26 5 -9 13 -13 17 -9 4 4 -2 14 -14 23 -12 8 -20 20 -17 25 4 5 1 9 -5 9
-6 0 -8 5 -5 10 3 6 2 10 -3 10 -5 0 -17 12 -27 26 -9 15 -11 23 -4 19 8 -5
10 -4 5 3 -4 7 -14 12 -23 12 -9 0 -13 6 -9 15 3 9 -1 18 -9 21 -8 4 -13 9
-10 13 2 4 -7 19 -21 34 -14 15 -22 27 -19 27 3 0 1 9 -5 21 -7 11 -18 18 -25
15 -9 -3 -12 0 -8 10 3 8 -6 23 -21 35 -15 12 -25 28 -22 35 3 8 -1 14 -9 14
-8 0 -15 9 -15 20 0 11 -7 20 -16 20 -8 0 -12 5 -9 10 3 6 1 10 -5 10 -6 0 -8
5 -5 10 3 6 1 10 -5 10 -16 0 -56 51 -52 67 2 7 -4 13 -13 13 -8 0 -15 5 -15
10 0 6 5 10 12 10 6 0 9 3 5 6 -3 3 -44 -26 -90 -65 -73 -61 -85 -76 -91 -110
-11 -68 -76 -104 -139 -78 -73 31 -86 121 -25 172 27 23 39 26 75 22 41 -4 47
-1 124 62 67 54 78 67 62 71 -12 3 -19 12 -17 22 1 10 -3 21 -8 25 -7 3 -8 1
-4 -5 5 -8 2 -10 -9 -6 -11 5 -13 10 -5 19 8 9 6 14 -5 19 -9 3 -13 2 -10 -4
3 -6 4 -10 1 -10 -3 0 -13 15 -21 33 -8 17 -13 23 -10 12 5 -20 5 -20 -10 -1
-8 11 -15 24 -15 29 0 4 -4 5 -10 2 -5 -3 -10 1 -10 9 0 9 -5 16 -11 16 -5 0
-7 4 -4 10 3 5 0 7 -8 4 -9 -3 -17 3 -20 16 -3 12 -10 19 -16 16 -5 -4 -12 3
-16 14 -3 11 -11 20 -16 20 -6 0 -7 4 -4 10 4 6 -1 7 -11 3 -14 -5 -16 -3 -11
11 4 9 3 15 -2 11 -6 -3 -14 3 -20 12 -6 10 -11 14 -11 10 0 -4 -6 -2 -14 5
-7 7 -11 19 -9 26 4 8 0 10 -11 6 -11 -4 -16 -1 -16 10 0 10 -9 16 -22 16 -19
0 -20 2 -8 10 10 6 11 10 3 10 -7 0 -13 7 -13 15 0 8 -11 17 -25 21 -13 3 -23
11 -22 18 1 6 -2 10 -8 9 -5 0 -16 5 -23 13 -7 8 -10 14 -7 14 3 0 0 6 -7 14
-7 8 -16 12 -20 9 -5 -2 -8 5 -8 16 0 12 -6 20 -12 19 -7 -2 -12 2 -11 9 2 7
-3 10 -11 7 -7 -3 -19 3 -27 12 -8 10 -9 15 -2 11 6 -4 14 -3 18 2 3 6 -3 8
-14 6 -11 -2 -25 3 -32 11 -6 8 -18 14 -26 14 -8 0 -11 5 -8 10 3 6 -1 10 -10
10 -9 0 -13 5 -10 10 3 6 1 10 -5 10 -6 0 -8 4 -5 10 3 6 -1 7 -9 4 -11 -4
-16 0 -16 10 0 9 -3 15 -7 14 -5 0 -19 4 -33 10 -14 6 -18 11 -10 12 13 0 13
1 0 10 -9 6 -17 5 -22 -3 -5 -8 -8 -4 -8 11 0 12 -5 22 -11 22 -17 0 -69 47
-61 55 4 5 2 5 -4 2 -15 -9 -64 15 -64 31 0 7 -4 10 -10 7 -5 -3 -10 1 -10 10
0 9 -4 14 -9 10 -6 -3 -22 7 -37 22 -15 16 -21 19 -14 8 12 -17 11 -17 -11 3
-14 12 -29 19 -34 15 -4 -5 -5 -3 -2 3 6 10 -39 39 -55 36 -4 -1 -18 12 -32
29 -14 17 -26 25 -26 17 -1 -7 -7 -2 -15 12 -8 14 -14 21 -15 17 0 -11 -100
45 -100 56 0 5 -5 5 -12 1 -7 -5 -9 -2 -5 8 6 17 -8 19 -32 4 -10 -6 -12 -5
-7 2 4 7 2 12 -3 12 -6 0 -11 8 -12 18 0 11 -2 12 -6 4 -4 -10 -8 -10 -19 -1
-8 6 -14 8 -14 5 0 -4 -10 2 -22 14 -16 15 -24 17 -30 8 -5 -9 -8 -7 -8 6 0
11 -3 16 -7 13 -3 -4 -12 2 -20 13 -8 11 -23 20 -34 20 -14 0 -18 4 -13 13 6
9 5 9 -7 0 -12 -10 -18 -9 -29 7 -7 10 -17 17 -22 14 -4 -3 -8 0 -8 6 0 7 -7
10 -15 6 -8 -3 -15 0 -15 6 0 6 -3 8 -7 5 -3 -4 -15 1 -26 10 -11 10 -17 13
-14 6 5 -8 1 -8 -18 0 -14 7 -25 16 -25 20 0 5 -4 6 -9 2 -5 -3 -17 2 -25 11
-11 10 -16 11 -16 3 0 -7 -8 -2 -19 9 -10 12 -28 22 -39 22 -11 0 -24 5 -27
10 -4 6 -11 8 -16 5 -5 -4 -12 1 -15 9 -3 9 -10 16 -16 16 -5 0 -6 -4 -3 -10
3 -5 1 -10 -4 -10 -6 0 -11 7 -11 16 0 8 -4 12 -10 9 -5 -3 -10 0 -10 7 0 9
-3 9 -10 -2 -5 -8 -10 -10 -10 -5 0 6 -8 15 -18 22 -15 9 -19 8 -19 -4 0 -8
37 -116 82 -241 77 -211 84 -227 111 -235 70 -23 124 -92 124 -158 0 -47 -36
-115 -73 -138 -75 -45 -153 -35 -210 28 -63 70 -58 165 13 231 l30 28 -91 254
c-51 139 -92 259 -92 266 0 6 -4 13 -9 13 -19 3 -24 5 -35 12 -7 5 -18 5 -25
1 -7 -4 -8 -3 -4 4 4 7 0 12 -11 13 -48 2 -66 7 -74 20 -5 9 -9 10 -9 2 0 -8
-9 -7 -30 3 -16 9 -42 17 -57 20 -16 3 -37 11 -48 18 -11 6 -33 13 -49 14 -17
1 -33 7 -37 13 -5 8 -9 8 -14 -1 -5 -9 -9 -9 -14 -1 -4 6 -19 12 -34 13 -15 1
-27 6 -27 11 0 5 -8 3 -17 -4 -9 -8 -14 -9 -10 -3 4 8 -5 14 -26 17 -95 16
-113 20 -118 29 -4 6 -9 5 -12 -3 -4 -11 -6 -11 -6 -1 -1 7 -5 10 -11 7 -5 -3
-10 -1 -10 6 0 10 -3 10 -11 2 -7 -7 -21 -8 -41 -2 -17 4 -34 6 -39 4 -4 -3
-10 -1 -14 5 -3 5 -31 10 -61 10 -30 0 -54 4 -54 10 0 5 -7 7 -15 4 -8 -3 -19
-3 -26 1 -6 4 -30 9 -53 10 -22 1 -52 5 -66 9 -14 4 -51 8 -82 7 -32 0 -60 4
-63 9 -9 14 -741 13 -766 -1 -17 -9 -20 -8 -13 3 6 10 5 11 -7 2 -8 -7 -40
-11 -72 -10 -31 0 -57 -3 -57 -7 0 -5 -8 -6 -19 -2 -10 3 -23 -1 -30 -9 -19
-23 4 -84 34 -92 12 -3 36 -19 51 -35 23 -24 29 -40 30 -80 2 -48 4 -52 104
-158 94 -100 105 -109 127 -100 39 15 86 10 121 -11 117 -72 83 -240 -55 -266
-85 -16 -178 83 -156 166 l10 38 -106 107 c-94 95 -109 106 -133 101 -40 -8
-84 3 -111 28 l-23 22 -180 -98 -179 -98 3 -58 c2 -37 -2 -72 -11 -95 l-15
-36 206 -132 c114 -73 217 -139 229 -146 19 -13 26 -12 62 6 161 82 325 -112
216 -255 -35 -46 -80 -68 -140 -68 -99 -1 -170 73 -169 175 l1 56 -229 147
-229 147 -32 -19 c-18 -11 -51 -25 -75 -32 -142 -37 -294 80 -296 229 l-1 57
-105 61 -105 61 -30 -18 c-71 -42 -154 -32 -205 27 -60 68 -60 162 0 222 106
105 280 32 280 -118 0 -39 0 -39 100 -96 l100 -57 21 26 c31 39 101 76 158 83
67 8 131 -11 182 -55 39 -34 42 -35 67 -20 15 8 100 55 190 103 126 67 166 94
173 114 6 14 17 33 25 42 12 13 12 25 2 67 -10 44 -14 50 -27 39 -12 -10 -13
-9 -6 3 7 12 6 13 -6 4 -8 -6 -28 -11 -46 -11 -17 0 -40 -6 -49 -14 -10 -8
-15 -9 -11 -3 4 7 0 14 -7 17 -17 7 -67 107 -60 119 3 4 0 8 -5 8 -6 0 -11 5
-11 12 0 11 -18 41 -70 118 -10 14 -21 36 -25 50 -4 14 -16 36 -25 50 -28 42
-54 85 -56 93 -1 4 -2 14 -3 23 0 8 -5 12 -11 9 -9 -6 -14 8 -11 28 0 4 -7 7
-16 7 -9 0 -14 3 -11 6 4 3 -4 21 -17 40 -13 19 -25 39 -27 45 -2 7 -89 12
-258 14 -264 4 -447 12 -490 22 -14 3 -43 6 -65 7 -22 1 -46 5 -52 9 -8 5 -13
3 -13 -5 0 -9 -3 -9 -10 2 -9 13 -11 13 -20 0 -9 -13 -10 -13 -10 0 0 9 -3 11
-8 5 -10 -14 -55 -18 -46 -4 5 8 1 8 -14 0 -15 -8 -23 -7 -33 5 -9 11 -14 12
-20 3 -6 -10 -13 -10 -36 0 -15 7 -25 10 -21 6 12 -13 -16 -34 -29 -23 -9 7
-17 7 -26 -1 -10 -8 -17 -7 -26 2 -10 9 -14 8 -22 -6 -8 -14 -14 -15 -24 -7
-10 8 -19 8 -34 0 -18 -9 -20 -8 -14 7 6 15 4 16 -8 6 -12 -10 -18 -10 -28 0
-10 9 -11 8 -6 -8 7 -20 6 -20 -9 -1 -16 19 -16 19 -17 -5 -1 -17 -3 -19 -6
-6 -2 9 -9 17 -14 17 -5 0 -8 -3 -6 -8 1 -4 -2 -8 -8 -9 -5 -1 -9 6 -7 15 2
14 1 14 -6 3 -6 -8 -15 -10 -22 -6 -8 5 -11 4 -6 -3 3 -6 2 -13 -4 -17 -5 -3
-10 2 -11 12 0 11 -3 13 -6 5 -2 -6 -9 -9 -14 -6 -6 3 -16 0 -24 -6 -8 -7 -20
-10 -27 -8 -7 3 -19 -2 -26 -11 -12 -15 -13 -15 -9 0 3 9 -1 16 -8 16 -7 0
-11 -6 -8 -14 3 -7 -2 -13 -11 -13 -9 0 -16 6 -16 13 0 8 -4 7 -10 -3 -5 -8
-10 -10 -10 -5 0 6 -4 4 -9 -4 -11 -17 -38 -23 -46 -11 -3 5 0 12 6 16 7 4 9
3 6 -3 -3 -5 0 -10 8 -10 18 0 18 2 1 16 -11 10 -19 7 -35 -10 -12 -13 -21
-18 -21 -12 0 7 -9 11 -20 10 -10 -1 -17 -3 -15 -6 3 -2 0 -10 -6 -18 -14 -16
-53 -18 -43 -1 4 7 3 8 -5 4 -9 -6 -9 -11 1 -24 12 -13 10 -14 -9 -4 -28 16
-33 15 -33 -3 0 -12 -7 -14 -26 -9 -16 4 -25 3 -21 -2 3 -6 -3 -11 -14 -11
-10 -1 -19 3 -19 8 0 6 -5 7 -10 4 -6 -4 -8 -11 -5 -16 3 -5 -1 -6 -9 -3 -9 3
-16 1 -16 -5 0 -6 -4 -11 -10 -11 -5 0 -7 8 -4 18 5 14 3 14 -10 -2 -9 -11
-16 -16 -16 -10 0 5 -5 1 -11 -8 -5 -10 -17 -18 -26 -18 -24 0 -84 -49 -77
-63 3 -7 -2 -3 -10 7 -9 11 -16 14 -16 8 0 -7 -7 -12 -15 -12 -8 0 -15 -7 -15
-16 0 -9 -5 -14 -12 -12 -15 5 -58 -35 -58 -54 0 -9 -3 -9 -10 2 -6 9 -10 10
-10 3 0 -6 -9 -15 -20 -18 -12 -4 -17 -11 -13 -18 4 -7 -2 -5 -13 3 -10 8 -16
11 -12 6 4 -5 -3 -17 -15 -28 -12 -11 -16 -17 -9 -13 6 3 12 4 12 1 0 -3 -15
-12 -32 -20 -18 -8 -27 -15 -20 -15 10 -1 10 -5 -2 -17 -9 -8 -20 -12 -26 -9
-6 4 -9 3 -8 -2 3 -10 -37 -74 -48 -76 -5 -1 -20 -13 -34 -26 -14 -13 -19 -21
-12 -17 6 4 12 2 12 -4 0 -7 -9 -14 -19 -17 -22 -6 -34 -29 -24 -46 4 -8 1 -7
-9 1 -13 11 -16 10 -14 -5 0 -10 5 -21 9 -24 5 -4 -8 -23 -29 -43 -20 -20 -34
-36 -29 -36 4 0 2 -6 -4 -13 -6 -8 -8 -17 -4 -20 3 -4 1 -7 -5 -7 -9 0 -25
-31 -27 -53 0 -5 -9 -15 -19 -23 -11 -8 -17 -14 -13 -14 5 0 3 -6 -3 -12 -40
-48 -50 -62 -50 -72 0 -6 -11 -24 -25 -41 -49 -60 -75 -99 -75 -115 0 -6 -7
-18 -15 -27 -8 -8 -13 -19 -10 -24 8 -11 -6 -12 -23 -1 -9 6 -10 16 -4 33 5
13 8 44 8 69 -1 28 4 49 13 56 11 9 12 12 1 19 -9 6 -11 4 -5 -5 5 -8 4 -11
-3 -6 -13 8 -5 36 11 36 8 0 8 3 0 11 -14 14 -5 41 11 32 6 -3 2 3 -8 15 -17
19 -17 22 -3 22 12 0 17 9 17 29 0 20 8 35 22 45 12 9 17 16 11 16 -6 0 -14 7
-17 16 -5 13 -3 14 7 6 10 -8 13 -6 13 8 0 10 -5 16 -11 14 -5 -3 -3 0 5 8 8
7 15 24 15 38 0 14 8 36 17 49 10 13 15 27 12 32 -3 5 0 9 5 9 6 0 11 9 11 20
0 11 5 20 11 20 5 0 7 5 4 10 -3 6 -2 10 3 10 6 0 8 10 4 22 -3 14 -2 19 6 14
16 -10 15 4 -1 18 -7 6 -11 10 -9 9 2 -1 13 6 23 16 17 16 23 29 33 78 3 18
16 28 16 13 0 -7 2 -11 5 -9 2 3 0 20 -5 38 -7 27 -7 31 4 22 10 -9 15 -8 20
4 3 9 2 13 -4 10 -6 -3 -7 1 -4 9 3 9 10 13 15 10 5 -3 9 2 9 10 0 8 9 17 19
21 11 3 22 13 25 22 5 13 4 14 -9 3 -13 -11 -14 -10 -9 3 3 8 12 18 20 21 8 3
14 12 14 21 0 8 5 15 10 15 6 0 10 7 10 16 0 9 5 12 12 8 8 -5 9 -2 5 10 -4 9
-3 15 1 12 8 -5 38 15 40 27 1 4 2 12 2 17 0 6 6 10 13 10 7 0 26 20 41 45 16
24 33 42 37 39 5 -3 14 7 19 21 6 16 14 23 22 19 6 -4 8 -3 4 4 -3 6 3 17 14
25 11 7 17 17 12 22 -4 4 1 5 11 2 12 -4 17 -1 17 10 0 9 3 13 7 10 3 -4 11 0
17 9 6 8 21 16 33 17 12 0 21 4 21 7 -1 3 4 16 10 30 8 18 11 20 11 8 1 -16 4
-15 23 4 13 13 22 26 21 30 -2 5 5 9 15 9 9 1 22 2 27 4 6 1 18 3 27 3 10 1
17 5 17 10 -4 25 2 34 14 23 8 -6 17 -7 21 -3 4 4 13 7 19 7 7 1 11 6 10 11
-1 6 4 11 12 11 8 0 12 -5 9 -11 -3 -6 4 -1 15 12 11 13 26 22 33 21 38 -5 69
2 62 14 -6 9 -4 9 8 -1 12 -9 18 -10 23 -2 4 6 13 9 21 6 8 -3 14 0 14 6 0 6
3 8 7 5 3 -4 13 -1 21 6 13 10 14 9 7 -3 -8 -13 -7 -13 9 0 11 8 29 13 42 12
13 -2 24 1 24 7 0 6 5 11 11 11 5 0 7 -5 3 -11 -4 -8 -1 -8 12 -1 11 5 25 7
32 5 6 -3 12 0 12 7 0 6 5 8 12 3 17 -10 70 -4 87 10 12 9 13 9 7 0 -4 -7 -3
-13 3 -13 5 0 13 5 16 10 7 12 43 9 64 -4 9 -6 12 -5 8 1 -4 7 17 10 58 10 40
0 65 -5 65 -11 0 -7 3 -7 8 -1 10 14 32 17 32 5 0 -5 3 -9 8 -9 4 1 9 0 12 -1
3 -1 34 -3 70 -5 36 -1 65 -3 65 -4 0 -2 8 -4 18 -6 9 -2 15 1 11 6 -8 13 3
11 36 -6 22 -11 30 -12 33 -2 3 6 6 7 6 2 1 -6 24 -9 51 -9 31 1 50 -3 50 -10
0 -7 3 -7 8 1 9 14 51 14 71 -1 11 -8 13 -8 8 1 -5 8 5 11 38 10 25 -1 45 1
45 5 0 4 7 5 15 2 9 -4 15 0 15 7 0 9 3 10 8 4 9 -13 35 -18 27 -5 -3 5 1 10
9 10 9 0 16 -6 16 -12 0 -8 3 -9 8 -3 9 12 32 13 50 1 8 -5 19 -3 25 3 9 9 7
10 -8 5 -21 -8 -20 -6 7 14 12 10 18 10 24 1 5 -8 3 -9 -6 -4 -8 5 -11 4 -6
-3 4 -6 13 -9 21 -6 8 4 13 10 10 14 -3 5 0 12 6 16 7 4 9 3 6 -3 -4 -6 -1
-16 6 -24 7 -8 11 -13 10 -11 -1 2 6 12 14 22 18 20 47 15 39 -6 -3 -8 -1 -14
4 -14 6 0 10 8 10 18 0 14 2 15 10 2 8 -13 10 -12 10 4 0 18 1 18 20 1 14 -13
23 -15 32 -7 17 13 80 23 72 11 -3 -5 -1 -9 5 -9 5 0 11 6 14 13 3 7 7 5 12
-8 31 -80 56 -125 68 -119 6 4 9 4 5 -1 -4 -4 2 -21 13 -36 11 -16 17 -33 14
-39 -3 -5 -2 -10 3 -10 9 0 43 -68 42 -83 0 -4 9 -17 21 -30 11 -12 29 -41 40
-64 20 -45 42 -62 72 -58 9 2 17 0 17 -4 0 -6 21 -10 73 -12 10 0 15 -5 11
-12 -5 -8 -3 -8 7 1 19 17 39 15 39 -5 0 -15 2 -15 9 -4 6 9 19 12 39 8 16 -3
34 -1 41 6 8 8 11 6 11 -8 0 -15 3 -16 12 -7 9 9 16 8 32 -6 12 -10 16 -11 11
-3 -6 11 -3 13 13 9 12 -3 23 -1 26 6 2 6 5 3 5 -8 1 -15 4 -16 16 -6 12 10
18 10 32 -1 11 -10 14 -10 9 -1 -10 17 4 15 26 -5 17 -15 18 -15 13 -1 -8 19
15 19 38 0 12 -10 18 -10 29 1 11 12 16 12 26 0 16 -16 36 -17 26 0 -5 8 -2 8
9 -2 15 -12 17 -11 17 4 0 14 3 15 15 5 8 -7 12 -17 9 -24 -3 -6 2 -2 11 9
l16 20 16 -20 c12 -15 14 -16 10 -3 -4 12 -2 15 9 11 8 -3 22 1 31 8 15 12 16
12 10 -6 -7 -20 -7 -20 8 -1 8 11 15 14 15 7 0 -7 5 -9 11 -5 6 3 15 0 20 -7
7 -11 9 -9 9 7 0 11 7 21 15 21 8 0 12 -4 9 -9 -3 -4 0 -8 5 -8 6 0 11 4 11
10 0 5 7 7 15 4 8 -4 15 -1 15 6 0 8 11 11 30 8 17 -3 33 -1 36 4 3 5 10 6 15
3 5 -3 6 2 2 12 -5 14 -3 16 7 6 16 -15 63 4 56 23 -5 13 11 13 31 1 7 -5 19
2 29 18 13 20 19 23 25 13 7 -10 9 -10 10 2 1 8 1 19 0 24 -1 5 5 4 13 -4 13
-10 16 -10 16 3 0 10 6 13 20 10 18 -5 25 4 21 29 0 4 6 5 14 2 9 -4 15 0 15
8 0 8 5 19 12 26 9 9 16 8 32 -6 11 -9 17 -12 13 -6 -3 6 5 22 18 34 28 27 34
50 8 29 -16 -13 -17 -12 -4 4 11 14 16 15 29 5 13 -11 15 -10 9 5 -4 10 -3 16
2 12 5 -3 17 5 25 17 9 12 16 19 16 15 0 -14 27 18 34 40 4 11 16 23 26 26 14
4 18 10 13 23 -4 11 -3 15 4 11 6 -4 10 1 9 10 0 10 4 18 11 18 6 0 15 4 20 9
4 5 4 7 -2 4 -5 -3 -16 1 -24 10 -13 13 -12 14 10 10 23 -4 25 -2 21 24 -4 23
-1 27 12 22 9 -3 17 -1 17 5 1 6 3 16 4 21 1 6 3 15 4 21 0 6 10 9 21 6 18 -5
18 -3 4 18 -10 16 -12 25 -4 30 6 3 7 11 4 17 -4 7 -2 8 5 4 9 -6 9 -12 -1
-24 -11 -15 -11 -15 3 -5 9 7 19 9 24 5 4 -4 3 3 -4 15 -9 18 -8 24 11 37 12
9 17 16 11 16 -13 0 -12 25 2 37 4 4 5 2 0 -6 -5 -10 -4 -12 3 -7 7 4 9 18 6
33 -5 18 -3 24 5 19 6 -4 11 -2 11 4 0 6 5 8 10 5 6 -3 10 -2 10 3 0 6 -7 13
-16 16 -14 5 -13 10 10 31 27 25 35 41 14 29 -7 -4 -4 3 7 16 17 20 17 22 3
17 -12 -4 -15 -2 -12 8 3 7 12 16 19 19 14 5 15 23 1 45 -7 11 -5 13 8 8 9 -4
14 -3 11 2 -3 5 0 13 6 17 8 4 7 9 -2 16 -11 8 -11 11 -1 15 10 4 10 8 1 19
-9 12 -9 13 3 9 9 -4 15 0 15 10 0 8 -4 15 -9 15 -5 0 -4 9 3 21 6 12 9 30 6
40 -3 11 1 26 9 33 11 11 11 16 1 19 -9 4 -8 6 2 6 11 1 11 4 1 16 -8 10 -9
15 -2 15 7 0 9 7 5 17 -5 12 -3 14 8 8 12 -8 12 -6 0 8 -7 9 -10 17 -7 17 4 0
2 9 -4 20 -9 16 -8 20 6 20 13 0 14 3 5 14 -9 11 -9 15 1 19 9 3 7 9 -7 21
-11 9 -15 16 -10 15 22 -3 29 2 16 10 -13 8 -13 12 0 27 11 13 11 18 2 21 -9
3 -10 10 -3 24 9 15 8 18 -7 12 -14 -5 -16 -3 -6 7 8 9 9 19 2 32 -7 13 -6 18
2 18 9 0 9 3 0 14 -9 10 -9 16 -1 21 7 4 8 11 2 18 -5 7 -8 23 -7 37 1 14 -2
28 -8 32 -7 4 -6 12 2 22 12 14 10 16 -10 16 -16 0 -20 3 -11 8 13 9 13 62 0
62 -4 0 -7 10 -7 23 1 12 -3 35 -10 50 -6 16 -7 26 -1 22 6 -3 7 1 4 9 -3 9
-11 16 -18 16 -7 0 -7 3 -1 8 11 8 17 43 6 39 -3 -1 -7 2 -8 7 -1 5 -6 12 -11
15 -6 4 -13 25 -16 49 -3 23 -7 46 -11 51 -3 5 1 12 7 15 7 3 4 4 -6 3 -14 -1
-22 7 -29 33 -5 19 -14 41 -20 49 -10 12 -9 13 3 7 12 -6 12 -5 -1 6 -8 7 -15
25 -14 40 1 18 -2 25 -12 21 -18 -7 -29 27 -12 38 9 5 10 9 2 9 -6 0 -15 9
-18 20 -4 12 -11 17 -18 13 -7 -4 -6 1 2 10 12 15 11 17 -3 17 -9 0 -16 8 -16
20 0 11 -5 20 -11 20 -7 0 -9 9 -6 21 3 12 0 22 -9 26 -8 3 -14 12 -14 20 0 8
-4 12 -8 9 -4 -2 -9 7 -10 22 -1 14 -9 30 -16 34 -8 5 -13 17 -11 28 3 13 -1
17 -11 13 -10 -4 -12 0 -7 13 4 10 2 15 -3 11 -6 -3 -16 9 -22 27 -7 20 -22
37 -35 41 -16 4 -18 8 -8 12 11 4 8 10 -10 25 -13 11 -17 16 -9 12 8 -4 5 4
-7 18 -13 13 -23 28 -23 32 0 13 -27 35 -35 28 -4 -4 -5 0 -3 8 2 9 -3 14 -12
12 -12 -2 -12 0 2 11 14 11 13 14 -14 30 -17 10 -28 20 -24 24 3 3 -3 12 -14
20 -11 8 -20 21 -20 29 0 8 -4 13 -9 9 -5 -3 -13 0 -17 6 -4 7 -3 9 4 5 6 -4
10 1 9 13 0 11 -5 17 -9 15 -4 -3 -16 0 -25 5 -12 7 -14 10 -4 11 20 0 -7 30
-28 30 -13 0 -13 2 -2 9 11 7 10 11 -5 20 -11 6 -14 11 -6 11 10 0 10 4 -2 16
-9 8 -16 22 -16 30 0 8 -4 13 -9 10 -11 -7 -33 19 -23 28 4 4 0 6 -8 4 -8 -2
-14 3 -12 10 1 8 -2 11 -6 8 -5 -3 -17 3 -27 14 -10 11 -24 20 -32 20 -7 0
-13 5 -13 11 0 12 -50 59 -63 59 -4 0 -12 11 -17 25 -5 14 -15 24 -22 23 -8
-2 -12 5 -10 17 1 13 -6 24 -20 30 -13 6 -23 17 -23 25 0 8 -4 15 -10 15 -18
1 -55 29 -55 42 0 7 -6 13 -14 13 -7 0 -29 17 -47 38 -19 21 -40 37 -46 35 -7
-3 -13 0 -13 7 0 6 -5 8 -12 4 -8 -5 -9 0 -5 15 5 19 3 20 -10 9 -13 -11 -17
-11 -21 0 -2 7 -15 17 -29 23 -13 5 -21 13 -18 19 3 5 1 10 -5 10 -7 0 -25 14
-41 31 -16 17 -29 28 -29 25 0 -4 -6 -1 -14 6 -8 7 -11 17 -9 22 3 5 0 7 -8 4
-7 -2 -21 5 -31 16 -15 18 -19 19 -38 8 -12 -8 -20 -10 -17 -5 3 4 -1 14 -9
21 -9 8 -14 9 -14 2 0 -7 -5 -6 -14 2 -8 7 -12 16 -10 19 2 3 -8 12 -21 19
-13 7 -22 17 -18 23 3 5 -4 4 -15 -2 -18 -10 -24 -8 -38 14 -9 14 -20 22 -25
19 -5 -3 -9 0 -9 6 0 6 -4 8 -10 5 -5 -3 -10 1 -10 9 0 19 -11 21 -27 5 -12
-12 -37 -3 -28 11 3 4 -4 6 -14 3 -13 -3 -21 2 -26 16 -7 23 -30 28 -38 9 -3
-8 -6 -5 -6 5 -1 10 -5 15 -11 12 -5 -3 -10 -1 -10 5 0 8 -9 10 -25 6 -18 -5
-23 -3 -19 8 3 8 0 17 -7 22 -8 4 -10 3 -5 -4 4 -7 2 -12 -4 -12 -6 0 -8 -4
-5 -10 3 -5 1 -10 -4 -10 -6 0 -11 10 -11 21 0 16 -5 20 -20 16 -13 -3 -20 0
-20 9 0 8 -4 14 -10 14 -5 0 -10 -4 -10 -9 0 -16 -33 -7 -58 17 -14 12 -30 22
-36 22 -6 0 -4 -5 4 -10 9 -6 10 -10 3 -10 -6 0 -15 5 -18 10 -4 6 -10 8 -15
5 -5 -3 -12 0 -16 6 -4 8 -3 9 4 5 7 -4 12 -2 12 4 0 6 -12 8 -30 5 -22 -4
-32 -1 -36 10 -5 12 -10 13 -20 4 -8 -6 -11 -16 -7 -22 3 -6 1 -7 -5 -3 -6 4
-8 14 -5 23 4 10 2 14 -5 9 -6 -3 -13 -3 -16 2 -3 5 -19 7 -37 4 -22 -3 -30
-1 -25 7 4 6 2 11 -3 11 -6 0 -11 -5 -11 -11 0 -6 -6 -9 -12 -6 -7 2 -12 9
-11 14 1 6 -9 9 -22 7 -14 -1 -27 2 -31 7 -7 13 -34 11 -34 -2 0 -5 5 -7 12
-3 7 5 8 3 3 -6 -6 -10 -10 -10 -19 2 -6 8 -21 14 -33 13 -13 -1 -23 3 -23 9
0 5 -7 1 -16 -10 -8 -10 -13 -14 -10 -7 4 6 2 14 -4 18 -6 4 -7 11 -4 17 4 7
2 8 -5 4 -6 -4 -9 -11 -7 -15 3 -4 -1 -8 -9 -8 -8 0 -12 4 -9 8 2 4 -1 11 -7
15 -7 4 -9 3 -5 -4 12 -19 -15 -25 -29 -6 -10 13 -17 15 -22 8 -9 -12 -45 -15
-38 -3 3 4 -2 10 -11 13 -12 4 -15 2 -11 -9 9 -21 -9 -27 -24 -8 -12 14 -12
16 1 8 8 -4 12 -5 8 0 -10 11 -69 15 -62 4 3 -5 -2 -9 -10 -9 -9 0 -16 4 -16
9 0 5 -7 12 -16 15 -8 3 -13 2 -10 -3 3 -5 -2 -12 -11 -15 -16 -6 -32 8 -33
29 0 6 -9 0 -19 -12 -11 -13 -22 -23 -26 -23 -4 0 -2 6 4 14 9 11 9 16 0 22
-8 5 -9 3 -4 -6 6 -10 2 -12 -18 -8 -14 3 -25 2 -24 -1 1 -3 -2 -7 -8 -8 -5
-1 -9 5 -7 14 3 14 2 14 -13 -1 -18 -17 -40 -12 -28 7 4 7 0 6 -10 -2 -9 -7
-23 -11 -31 -8 -8 3 -17 1 -20 -6 -4 -7 -4 -2 -2 11 5 27 0 28 -14 2z m815
-100 c-3 -5 -12 -10 -18 -10 -7 0 -6 4 3 10 19 12 23 12 15 0z m-131 -1083 c4
4 4 0 1 -9 -6 -16 14 -30 50 -34 10 -1 21 -7 23 -13 2 -6 10 -11 18 -11 9 0
12 -4 9 -10 -3 -5 3 -10 14 -10 13 0 21 -7 22 -17 0 -11 3 -13 6 -6 4 10 10
10 26 -2 12 -8 28 -15 35 -15 18 0 43 -26 34 -35 -4 -5 -1 -5 5 -1 15 9 67
-40 58 -54 -3 -6 2 -10 11 -10 14 0 15 -3 6 -12 -17 -17 -15 -28 6 -29 15 -1
14 -2 -2 -6 -15 -4 -16 -7 -5 -14 11 -7 11 -9 1 -9 -18 0 11 -30 30 -30 8 0 7
-4 -4 -11 -22 -12 -23 -29 -2 -29 8 0 13 -4 9 -9 -7 -13 26 -30 45 -24 9 3 8
0 -4 -9 -17 -13 -17 -15 -2 -21 9 -4 16 -13 16 -21 0 -8 9 -18 20 -21 11 -3
20 -11 20 -16 0 -6 6 -17 14 -24 10 -11 16 -11 27 -2 8 7 11 8 7 3 -9 -11 10
-48 21 -41 5 2 15 -3 22 -12 12 -14 12 -16 0 -8 -10 5 -12 4 -7 -3 4 -7 14
-12 22 -12 8 0 14 -5 14 -11 0 -5 5 -7 10 -4 6 3 10 -1 10 -9 0 -16 11 -20 39
-17 7 2 10 -2 7 -7 -3 -6 1 -12 8 -15 8 -3 16 -1 19 6 2 6 10 -3 17 -20 10
-21 17 -28 22 -20 4 7 13 12 20 12 17 0 37 -18 31 -27 -2 -4 3 -5 11 -2 9 3
14 10 11 14 -3 5 0 12 6 16 7 4 9 3 6 -3 -4 -6 1 -17 10 -24 12 -10 14 -10 9
-1 -4 6 -2 12 3 12 19 0 26 -5 23 -14 -2 -5 5 -3 14 5 12 9 15 9 10 2 -5 -9 0
-13 13 -13 12 0 21 -6 21 -14 0 -8 9 -18 20 -21 11 -3 20 -13 20 -21 0 -9 5
-12 12 -8 7 5 9 0 6 -14 -4 -14 -2 -19 7 -16 6 3 18 -2 25 -11 11 -13 10 -15
-6 -9 -11 4 -2 -10 21 -31 22 -21 35 -35 28 -31 -6 3 -14 2 -17 -3 -3 -5 1
-11 9 -15 8 -3 15 -11 15 -17 0 -8 -5 -7 -17 2 -10 7 -7 1 7 -14 18 -21 20
-26 7 -21 -9 3 -17 2 -17 -4 0 -6 6 -13 13 -15 7 -3 5 -6 -6 -6 -14 -1 -16 -5
-8 -20 8 -14 7 -22 -4 -31 -11 -9 -12 -17 -5 -30 7 -13 6 -21 -2 -26 -7 -4 -8
-3 -4 4 4 7 2 10 -7 6 -7 -2 -14 -11 -14 -19 0 -8 4 -12 9 -9 4 3 8 0 8 -5 0
-6 -5 -11 -11 -11 -5 0 -7 -5 -4 -10 4 -6 12 -8 18 -4 7 3 1 -4 -12 -15 -21
-19 -17 -27 12 -22 5 1 6 -3 2 -9 -3 -5 -14 -10 -23 -11 -14 0 -14 -2 2 -8 11
-4 20 -15 22 -24 1 -10 -3 -14 -12 -10 -8 3 -14 0 -14 -6 0 -6 5 -11 12 -11 6
0 8 -3 5 -7 -4 -3 -2 -12 4 -19 9 -10 7 -15 -5 -20 -9 -3 -13 -10 -10 -15 3
-5 9 -7 14 -4 4 3 10 -2 13 -10 4 -9 1 -12 -7 -9 -8 3 -17 0 -22 -7 -4 -8 -3
-10 4 -5 8 5 12 -1 12 -16 0 -13 5 -29 12 -36 16 -16 -4 -16 -22 1 -8 6 -7 2
3 -9 10 -12 17 -28 15 -35 -2 -8 3 -13 10 -11 10 2 11 -4 7 -19 -5 -14 -2 -25
6 -30 8 -4 15 -12 15 -16 8 -42 21 -58 46 -55 3 1 9 -5 12 -14 3 -8 2 -12 -3
-9 -5 3 -13 1 -16 -5 -4 -6 -3 -10 2 -9 42 7 61 -25 36 -60 -11 -17 -11 -21
-1 -21 8 -1 6 -6 -6 -15 -17 -13 -17 -17 -5 -32 8 -9 9 -14 2 -10 -7 4 -16 -4
-24 -22 -7 -16 -17 -28 -20 -25 -4 2 -6 -7 -3 -21 2 -14 0 -25 -6 -25 -5 0
-10 -12 -10 -27 0 -14 -3 -24 -6 -20 -10 10 -36 -22 -30 -38 3 -9 0 -12 -10
-8 -8 3 -14 2 -12 -3 4 -16 -22 -54 -37 -54 -9 0 -15 -10 -15 -26 0 -24 -2
-25 -17 -13 -9 8 -14 9 -10 3 3 -6 0 -20 -8 -30 -15 -19 -15 -19 -8 1 6 17 5
18 -9 5 -8 -8 -13 -21 -11 -27 5 -12 -8 -18 -29 -14 -5 0 -8 -4 -8 -10 0 -15
-23 -36 -36 -32 -6 2 -22 -6 -35 -17 l-24 -21 30 16 30 17 -23 -20 c-13 -12
-29 -19 -37 -15 -8 3 -17 -2 -21 -10 -9 -24 -118 -137 -132 -137 -6 0 -12 -6
-12 -13 0 -17 -85 -77 -110 -77 -11 0 -20 -5 -20 -11 0 -5 -4 -7 -10 -4 -5 3
-10 2 -10 -3 0 -5 -10 -9 -22 -8 -13 1 -26 -3 -30 -9 -11 -15 -56 38 -84 100
-14 30 -29 57 -34 60 -5 3 -7 15 -5 27 3 11 2 18 -1 15 -7 -7 -44 29 -44 43 0
6 -5 10 -11 10 -5 0 -7 5 -3 11 3 6 2 14 -4 18 -5 3 -12 15 -14 26 -1 11 -5
22 -8 25 -15 15 -50 71 -50 79 0 6 -6 14 -13 18 -12 8 -18 19 -50 93 -9 19
-24 44 -34 55 -10 11 -25 35 -32 53 -7 17 -17 32 -22 32 -5 0 -6 6 -3 13 2 7
-9 32 -26 55 -17 24 -28 48 -24 54 5 7 2 9 -9 5 -11 -4 -15 -1 -12 14 2 10 1
19 -4 19 -9 0 -47 92 -43 104 2 5 -4 6 -13 3 -17 -7 -19 1 -5 23 5 8 10 11 10
5 0 -5 6 -3 13 6 15 21 93 60 101 52 3 -4 6 -1 6 5 0 6 10 14 23 18 12 4 29
15 37 24 8 9 23 16 33 14 9 -1 17 2 17 7 0 5 7 9 15 9 8 0 15 5 15 11 0 5 4 8
9 5 5 -3 12 5 15 19 4 14 14 25 24 26 9 0 12 3 5 5 -7 3 -9 12 -6 20 5 13 7
13 14 2 7 -10 9 -9 9 5 0 10 3 16 8 14 4 -3 8 9 9 26 1 17 8 34 14 38 7 4 14
17 16 29 2 15 -1 19 -9 14 -9 -5 -9 -2 1 9 11 14 11 17 0 17 -11 0 -11 2 1 10
8 5 11 10 5 11 -5 0 -1 4 10 9 16 7 17 9 3 9 -9 1 -20 6 -24 13 -5 7 -3 8 5 3
24 -14 1 91 -23 107 -6 4 -11 12 -11 18 0 6 -5 14 -11 18 -6 4 -14 19 -17 34
-4 15 -13 33 -20 40 -8 7 -12 18 -10 23 1 6 -8 23 -22 39 -13 16 -27 38 -31
50 -4 11 -15 32 -25 45 -10 13 -16 28 -12 34 3 5 1 7 -4 4 -12 -8 -26 20 -17
34 3 5 2 9 -3 8 -13 -3 -43 12 -39 20 4 6 -26 38 -31 34 -2 -2 -9 -3 -15 -3
-9 0 -8 4 2 10 12 8 9 10 -13 10 -20 0 -26 4 -21 13 5 7 0 6 -11 -3 -10 -8
-16 -10 -13 -5 3 6 -3 19 -14 30 -19 20 -19 20 -12 0 6 -16 5 -18 -7 -7 -16
14 -33 16 -24 2 4 -6 -1 -7 -11 -3 -14 5 -13 8 7 19 13 7 18 13 12 14 -7 0
-22 -9 -34 -21 -11 -11 -19 -14 -17 -7 3 14 -3 18 -23 18 -5 0 -7 -6 -3 -12 6
-9 3 -9 -9 0 -20 17 -82 28 -73 14 4 -6 -2 -8 -14 -5 -13 4 -20 0 -20 -10 0
-14 -93 -63 -117 -60 -7 0 -13 -5 -13 -11 0 -6 -9 -12 -21 -13 -12 -1 -27 -10
-33 -19 -8 -11 -18 -14 -26 -9 -9 5 -11 4 -6 -3 6 -11 -6 -16 -26 -13 -5 0 -8
-3 -8 -8 0 -5 -25 -21 -55 -35 -30 -14 -55 -30 -55 -35 0 -6 -3 -10 -7 -9 -11
2 -107 -44 -111 -53 -2 -5 -9 -6 -15 -3 -7 2 -22 -5 -34 -16 -12 -11 -27 -20
-33 -20 -6 0 -9 -4 -6 -8 3 -5 0 -9 -7 -9 -19 0 -12 58 10 81 16 16 19 26 12
39 -8 13 -6 17 6 17 18 0 19 11 3 29 -10 11 -10 13 0 7 6 -4 12 -2 12 4 0 6 4
9 9 5 6 -3 8 3 6 15 -2 11 0 22 6 25 5 4 9 20 9 36 0 17 4 28 9 25 5 -4 7 2 4
13 -3 11 2 21 11 24 10 4 13 15 10 32 -3 17 1 27 11 31 8 4 15 10 15 16 0 5
-6 6 -12 2 -9 -5 -9 -3 1 9 7 9 17 14 22 11 5 -3 6 2 3 10 -3 9 -1 16 5 16 6
0 11 7 11 15 0 9 7 32 17 53 9 20 17 39 18 42 0 3 11 24 23 46 11 23 18 45 14
49 -4 5 -2 5 4 2 7 -4 14 1 17 12 3 11 30 28 73 45 38 15 76 34 84 41 18 15
74 32 113 34 19 0 27 -4 28 -17 1 -15 2 -15 6 1 5 18 5 18 20 0 14 -17 14 -17
9 1 -6 16 -4 17 9 6 8 -7 15 -9 15 -4 0 5 5 2 10 -6 8 -12 10 -12 11 5 0 19 1
18 11 -2 12 -26 34 -32 24 -7 -5 12 -1 14 17 8 12 -4 26 -12 30 -18 5 -6 5 0
2 14 -6 20 -5 23 6 13 16 -15 55 -17 64 -3 3 6 11 10 17 10 6 0 3 -10 -8 -22
-19 -22 -19 -23 1 -8 11 8 24 21 29 29 6 10 10 11 16 1 6 -9 14 -6 30 13 16
18 29 24 47 21 18 -3 23 -1 18 8 -4 7 0 5 8 -4 8 -10 17 -15 21 -11z m-2507
-199 c-3 -8 -6 -5 -6 6 -1 11 2 17 5 13 3 -3 4 -12 1 -19z m2198 -298 c3 -6
-1 -7 -9 -4 -18 7 -21 14 -7 14 6 0 13 -4 16 -10z m2326 -2033 c-10 -9 -11 -8
-5 6 3 10 9 15 12 12 3 -3 0 -11 -7 -18z m-28 -52 c-3 -9 -8 -14 -10 -11 -3 3
-2 9 2 15 9 16 15 13 8 -4z m-113 -120 c0 -2 -6 -8 -13 -14 -10 -8 -14 -7 -14
2 0 8 6 14 14 14 7 0 13 -1 13 -2z m-2370 -155 c0 -5 -4 -10 -10 -10 -5 0 -10
5 -10 10 0 6 5 10 10 10 6 0 10 -4 10 -10z m-992 -1557 c41 -30 63 -66 69
-111 l6 -42 197 0 c162 0 200 3 210 15 18 21 76 29 111 15 34 -15 59 -56 59
-99 0 -37 -41 -88 -79 -96 -39 -8 -93 15 -110 48 l-14 27 -169 0 c-92 0 -168
-2 -168 -4 0 -2 68 -66 151 -141 112 -101 155 -135 167 -129 118 51 227 -66
162 -174 -39 -64 -128 -77 -183 -27 -26 25 -53 88 -43 104 5 7 -103 109 -319
303 l-41 37 -48 -16 c-60 -20 -115 -6 -162 41 -80 80 -55 215 50 262 41 19
120 12 154 -13z m6517 -353 c3 -6 -1 -7 -9 -4 -18 7 -21 14 -7 14 6 0 13 -4
16 -10z m-1830 -111 c-3 -4 3 -8 12 -8 10 -1 37 -2 61 -2 23 -1 42 -5 42 -9 0
-6 15 -8 87 -13 12 0 20 -4 17 -8 -2 -4 6 -8 18 -8 13 0 33 -1 46 -1 12 0 22
-4 22 -9 0 -5 15 -11 33 -14 50 -7 78 -15 91 -25 6 -5 19 -10 29 -11 40 -3 47
-5 47 -13 0 -4 9 -8 20 -8 11 0 20 -6 20 -12 0 -9 4 -8 10 2 8 13 10 13 10 -2
0 -12 6 -15 22 -10 16 4 19 2 13 -8 -6 -10 -4 -12 8 -7 10 3 17 2 17 -4 0 -6
5 -7 10 -4 6 3 10 1 10 -4 0 -6 9 -11 20 -11 11 0 20 -4 20 -8 0 -5 6 -9 13
-9 22 -1 41 -8 56 -21 7 -7 20 -11 28 -8 7 3 16 -1 20 -10 3 -8 12 -13 20 -10
8 3 12 2 10 -2 -7 -11 17 -29 36 -26 9 1 15 -3 14 -9 -1 -6 8 -13 21 -15 12
-2 22 -8 22 -13 0 -6 4 -8 9 -4 5 3 12 1 16 -5 4 -6 12 -7 18 -4 7 4 9 4 5 -1
-4 -4 -1 -14 7 -21 17 -17 29 -18 19 -2 -4 7 -3 8 5 4 6 -4 9 -11 6 -16 -3 -5
4 -11 15 -15 11 -4 18 -11 15 -16 -3 -5 0 -6 8 -3 8 3 20 -2 27 -11 7 -8 19
-15 27 -15 8 0 11 -4 8 -10 -3 -5 -1 -10 5 -10 6 0 8 -5 4 -12 -4 -6 -3 -8 4
-5 15 10 43 -3 35 -16 -4 -6 4 -7 23 -3 28 7 28 7 9 -9 -11 -9 -14 -14 -8 -10
7 3 23 -1 35 -9 12 -9 18 -16 12 -16 -5 0 -15 5 -22 12 -8 8 -12 8 -12 1 0
-11 29 -28 43 -25 4 1 7 -3 7 -9 0 -5 5 -7 10 -4 6 3 10 1 10 -4 0 -6 10 -11
23 -11 18 0 19 -2 7 -10 -8 -5 -10 -10 -4 -10 5 0 19 -7 30 -16 10 -8 13 -12
5 -8 -9 5 -12 3 -7 -4 4 -7 14 -12 23 -12 10 0 13 -6 9 -16 -3 -8 -2 -12 4 -9
6 3 10 1 10 -5 0 -6 5 -8 10 -5 6 3 10 -1 10 -9 0 -15 12 -21 34 -17 5 1 4 -5
-3 -13 -11 -13 -10 -15 7 -11 15 3 19 -1 15 -16 -4 -13 0 -19 11 -19 9 0 16
-4 16 -10 0 -5 9 -10 20 -10 12 0 20 -7 20 -16 0 -20 25 -45 35 -36 5 4 5 2 1
-5 -3 -6 2 -16 11 -22 10 -6 14 -11 10 -11 -4 0 3 -10 16 -22 13 -13 22 -29
20 -36 -3 -8 1 -10 13 -5 11 4 15 3 11 -4 -4 -6 0 -16 9 -23 8 -7 13 -19 10
-27 -7 -17 10 -17 18 0 4 6 4 2 2 -10 -3 -15 1 -23 9 -23 8 0 17 -5 21 -12 5
-7 3 -8 -5 -3 -10 6 -11 3 -2 -13 6 -12 19 -26 29 -31 9 -6 13 -11 8 -11 -4 0
0 -8 11 -17 10 -10 13 -14 6 -9 -10 6 -12 4 -7 -8 3 -9 12 -16 20 -16 8 0 11
-6 7 -17 -4 -11 -3 -14 5 -9 11 6 14 1 11 -21 0 -4 9 -11 21 -15 18 -6 20 -11
11 -22 -9 -11 -8 -15 5 -20 9 -4 14 -13 10 -21 -3 -9 0 -15 9 -15 9 0 12 -8
10 -20 -2 -12 4 -25 15 -32 10 -7 16 -18 12 -26 -3 -10 -1 -13 6 -8 8 5 12 -1
12 -15 0 -12 8 -28 18 -36 10 -9 11 -11 2 -7 -10 5 -9 1 3 -14 11 -11 16 -25
13 -30 -3 -6 2 -13 11 -16 15 -6 15 -8 3 -16 -8 -6 -10 -10 -5 -10 9 0 33 -45
39 -73 2 -6 8 -23 13 -37 6 -14 9 -28 6 -32 -2 -5 0 -8 6 -8 5 0 8 -9 6 -20
-2 -11 1 -20 6 -20 6 0 7 -4 4 -10 -3 -5 -1 -10 6 -10 6 0 9 -8 6 -20 -3 -10
-1 -20 5 -22 5 -2 10 -20 11 -41 1 -20 6 -37 11 -37 4 0 5 -7 2 -16 -3 -9 -3
-21 1 -27 4 -7 9 -19 10 -27 8 -41 16 -97 16 -110 0 -8 4 -21 10 -27 5 -7 6
-13 3 -13 -4 0 -2 -8 3 -18 5 -10 6 -24 1 -32 -9 -15 -2 -42 9 -35 4 2 7 -99
7 -226 -1 -126 2 -229 6 -229 3 0 4 -9 1 -20 -3 -11 -10 -20 -17 -20 -6 0 -4
-5 4 -10 12 -7 12 -10 1 -10 -7 0 -11 -6 -7 -15 3 -8 2 -15 -3 -15 -4 0 -7
-20 -6 -45 1 -25 -1 -45 -4 -45 -4 0 -8 -15 -9 -32 -2 -18 -5 -46 -8 -63 -4
-16 -7 -36 -7 -42 0 -7 -3 -13 -7 -13 -4 0 -6 -13 -4 -30 2 -16 0 -30 -4 -30
-4 0 -8 -8 -9 -17 -5 -43 -16 -83 -24 -83 -4 0 -6 -9 -4 -20 2 -11 0 -20 -6
-20 -5 0 -9 -13 -9 -30 0 -16 -4 -30 -9 -30 -4 0 -7 -11 -6 -25 3 -22 -4 -29
-26 -27 -3 0 -4 -13 -3 -29 1 -16 -2 -29 -7 -29 -5 0 -8 -3 -8 -7 3 -19 -2
-34 -9 -29 -5 3 -9 -1 -9 -9 0 -8 4 -12 9 -9 4 3 5 -2 2 -10 -3 -9 -10 -13
-15 -10 -5 3 -6 -3 -2 -12 5 -13 2 -16 -9 -11 -12 4 -14 1 -10 -15 3 -13 1
-19 -5 -15 -6 4 -8 -3 -5 -18 2 -15 0 -25 -7 -25 -7 0 -9 6 -5 13 4 6 3 8 -2
4 -4 -4 -9 -18 -9 -30 0 -14 -5 -21 -14 -19 -12 3 -12 1 0 -14 9 -12 9 -15 2
-10 -9 5 -13 0 -13 -13 0 -12 -5 -21 -11 -21 -6 0 -8 -7 -5 -16 3 -8 2 -12 -4
-9 -6 3 -10 -1 -10 -10 0 -10 -5 -13 -12 -9 -6 4 -8 3 -5 -4 10 -15 -3 -42
-19 -42 -13 0 -18 -15 -17 -47 1 -7 -3 -10 -8 -8 -7 5 -31 -28 -26 -36 1 -2 0
-3 -2 -1 -10 5 -39 -31 -35 -43 3 -7 -2 -15 -10 -18 -9 -4 -16 -11 -16 -17 0
-6 5 -8 12 -4 7 4 8 3 4 -5 -4 -6 -12 -9 -17 -6 -5 4 -9 1 -9 -5 0 -6 -5 -8
-12 -4 -8 5 -7 0 2 -11 12 -15 12 -17 1 -10 -11 6 -13 4 -8 -8 4 -11 2 -14 -9
-10 -8 3 -14 -1 -14 -11 0 -18 -33 -39 -46 -28 -5 4 -3 0 3 -8 10 -13 6 -21
-22 -45 -19 -17 -35 -39 -36 -50 0 -11 -3 -14 -6 -8 -3 10 -8 9 -19 -2 -9 -8
-12 -20 -8 -26 4 -7 -2 -6 -17 2 -21 11 -23 11 -11 -3 10 -13 9 -16 -8 -21
-11 -3 -20 -13 -20 -22 0 -11 -5 -15 -14 -12 -10 4 -14 0 -11 -13 2 -12 -1
-17 -9 -14 -15 6 -38 -19 -34 -37 3 -12 -1 -14 -33 -18 -6 0 -9 -7 -6 -15 4
-10 -1 -12 -16 -9 -18 4 -19 3 -7 -6 13 -9 13 -11 -1 -11 -9 0 -24 -11 -33
-25 -10 -15 -22 -22 -31 -19 -9 4 -15 0 -15 -10 0 -9 -19 -25 -45 -37 -25 -12
-45 -25 -45 -31 0 -5 -6 -6 -12 -2 -8 5 -7 0 2 -11 9 -11 10 -16 3 -11 -7 4
-13 4 -13 -1 0 -11 -51 -34 -61 -27 -5 3 -6 -3 -2 -12 4 -12 3 -15 -5 -10 -6
4 -20 -2 -31 -13 -14 -14 -22 -16 -31 -8 -6 7 -11 8 -10 2 2 -5 2 -19 1 -30
-1 -15 -3 -17 -10 -6 -6 10 -10 10 -16 1 -4 -6 -14 -9 -22 -6 -9 4 -11 2 -7
-6 5 -8 2 -9 -10 -5 -10 4 -15 3 -11 -3 3 -6 -1 -10 -10 -10 -10 0 -13 -5 -9
-12 5 -8 2 -9 -9 -5 -12 4 -17 1 -17 -11 0 -14 -2 -14 -9 -3 -7 11 -10 9 -16
-9 -5 -17 -9 -19 -16 -9 -6 11 -9 10 -15 -4 -3 -9 -10 -15 -14 -12 -8 5 -86
-30 -92 -42 -3 -5 -3 -3 -2 4 4 16 -23 5 -30 -13 -3 -8 -12 -11 -22 -7 -12 4
-15 3 -10 -5 5 -8 2 -10 -8 -6 -9 3 -16 1 -16 -6 0 -6 -4 -8 -10 -5 -5 3 -10
1 -10 -6 0 -8 -4 -8 -15 1 -12 10 -15 9 -15 -5 0 -10 -3 -15 -7 -12 -3 4 -12
2 -20 -4 -7 -6 -13 -8 -13 -4 0 4 -7 2 -15 -5 -8 -6 -18 -9 -24 -6 -5 3 -11 2
-13 -4 -1 -5 -18 -10 -35 -12 -18 -1 -33 -6 -33 -10 0 -4 -10 -8 -23 -8 -13 0
-28 -5 -35 -12 -9 -9 -12 -9 -12 2 0 13 -2 13 -10 0 -5 -8 -10 -12 -10 -8 0 4
-15 2 -32 -3 -18 -6 -49 -13 -68 -16 -19 -3 -38 -10 -42 -17 -5 -7 -8 -6 -8 4
0 13 -1 13 -10 0 -5 -8 -10 -11 -10 -7 0 4 -9 3 -20 -3 -15 -8 -20 -8 -20 1 0
8 -4 9 -13 0 -8 -6 -17 -8 -20 -4 -4 3 -13 0 -22 -7 -12 -10 -15 -10 -16 1 0
10 -2 10 -5 2 -6 -14 -604 -19 -604 -6 0 5 -26 9 -57 11 -32 2 -62 7 -68 11
-5 5 -17 9 -25 9 -65 4 -79 6 -75 12 2 4 -10 8 -28 9 -60 4 -75 7 -90 19 -7 7
-17 9 -20 5 -4 -3 -7 -1 -7 5 0 7 -5 12 -11 12 -5 0 -7 -6 -3 -12 4 -7 -2 -5
-13 5 -11 9 -23 14 -26 11 -4 -4 -13 -1 -22 6 -12 10 -15 10 -16 -1 0 -10 -2
-11 -6 -1 -2 6 -11 12 -19 12 -8 0 -14 5 -14 11 0 8 -4 8 -12 1 -15 -11 -42
10 -30 24 4 5 -2 2 -12 -6 -13 -10 -17 -10 -12 -2 5 8 -1 12 -18 12 -14 0 -26
5 -26 10 0 6 -9 10 -21 10 -13 0 -18 4 -13 13 6 9 5 9 -7 0 -12 -10 -18 -9
-29 7 -7 10 -17 17 -22 14 -4 -3 -8 1 -8 8 0 10 -3 9 -10 -2 -8 -12 -10 -12
-16 3 -5 15 -9 15 -22 5 -9 -8 -13 -8 -9 -2 4 7 -2 14 -14 17 -12 3 -18 10
-15 15 3 6 -2 8 -14 5 -11 -3 -20 0 -20 6 0 6 -10 11 -22 11 -19 0 -20 2 -8
10 12 8 11 10 -7 10 -13 0 -23 5 -23 11 0 5 -4 8 -9 5 -5 -3 -14 1 -21 9 -7 8
-19 15 -27 15 -19 0 -44 25 -35 35 4 5 2 5 -5 2 -13 -8 -45 2 -39 12 3 4 -5
13 -17 21 -21 12 -21 12 -7 -6 13 -17 13 -17 -9 1 -14 11 -36 31 -50 46 -14
14 -20 18 -13 9 21 -29 13 -30 -16 -2 -15 15 -26 30 -24 35 2 4 -6 7 -18 7
-12 0 -18 5 -15 10 3 6 -1 10 -10 10 -9 0 -13 5 -10 10 3 6 -1 10 -10 10 -8 0
-18 7 -21 15 -4 10 -14 14 -28 10 -11 -2 -16 -2 -9 1 10 4 10 8 0 19 -7 7 -15
11 -19 8 -5 -2 -8 3 -8 12 0 9 -4 13 -10 10 -9 -6 -14 8 -7 20 3 7 -46 40 -55
37 -5 -1 -8 5 -8 13 0 8 -5 15 -11 15 -5 0 -7 6 -3 13 5 7 1 7 -12 -3 -10 -8
-16 -11 -12 -6 4 4 -2 17 -12 29 -11 11 -17 24 -14 28 3 5 -3 6 -12 2 -12 -4
-15 -3 -10 5 4 7 1 12 -8 12 -14 0 -20 11 -17 32 0 4 -6 5 -14 2 -9 -4 -15 0
-15 10 0 9 -4 16 -10 16 -5 0 -10 8 -10 18 0 10 -12 29 -27 43 l-28 24 23 -26
c12 -14 22 -29 22 -33 0 -4 -11 6 -25 22 -14 17 -25 35 -25 42 0 6 -5 8 -12 4
-6 -4 -8 -3 -4 4 3 6 -5 22 -19 36 -14 14 -25 32 -25 41 0 10 -5 13 -12 9 -7
-5 -9 0 -6 14 3 12 3 21 -1 20 -18 -2 -32 3 -27 10 7 11 -31 72 -44 72 -5 0
-9 3 -9 8 4 21 -3 32 -18 32 -14 0 -15 2 -5 9 11 7 11 9 -2 14 -9 4 -13 13
-10 20 3 8 -2 17 -10 20 -9 4 -16 16 -16 27 0 11 -4 20 -10 20 -5 0 -10 9 -10
21 0 11 -4 17 -10 14 -6 -4 -10 5 -10 20 0 14 -4 24 -8 21 -4 -2 -9 5 -9 16
-1 12 -8 25 -15 29 -7 5 -9 9 -4 9 5 0 -1 12 -15 27 -13 14 -18 23 -11 19 17
-10 15 9 -3 24 -12 10 -13 16 -3 28 8 10 9 13 2 9 -14 -8 -27 20 -17 35 3 7 1
8 -5 4 -7 -4 -12 -2 -12 3 0 16 -2 23 -16 50 -7 14 -11 28 -8 33 3 4 1 8 -3 8
-5 0 -9 8 -10 18 -1 18 -10 57 -13 57 -2 0 -6 17 -15 60 -4 17 -8 37 -10 45
-2 8 -4 15 -6 15 -1 0 -3 9 -5 20 -4 27 -12 60 -14 60 -2 0 -9 53 -11 83 -1
12 -5 22 -8 22 -4 0 -6 19 -6 43 1 23 -2 47 -6 52 -3 6 -7 17 -8 25 -5 39 -7
466 -2 475 6 12 10 36 15 100 2 28 5 50 6 50 3 0 11 38 13 68 2 16 10 33 18
38 8 5 9 9 3 9 -8 0 -9 11 -4 37 5 20 7 40 4 44 -2 4 0 9 5 11 6 1 11 15 13
30 2 15 7 30 11 34 12 12 8 26 -5 18 -7 -4 -5 2 5 13 9 11 14 23 10 26 -3 4
-1 7 5 7 6 0 9 9 7 20 -2 11 0 20 6 20 5 0 9 9 9 20 0 12 9 40 20 62 11 23 20
48 20 55 0 7 5 13 10 13 6 0 9 3 9 8 -4 20 15 71 24 65 6 -4 8 0 4 11 -4 10
-1 19 7 22 7 3 13 11 14 19 1 8 3 22 4 30 1 8 5 12 10 9 7 -5 12 10 9 29 0 4
4 7 11 7 6 0 8 3 5 7 -4 3 0 15 10 25 9 10 13 18 8 18 -4 0 -2 7 5 15 6 8 8
20 4 27 -6 10 -5 10 8 0 14 -11 16 -10 13 5 -2 18 34 75 65 101 13 11 13 12 0
6 -13 -7 -13 -5 -1 9 7 9 17 14 22 11 5 -3 6 1 3 9 -3 8 2 17 10 20 9 4 16 16
16 27 0 12 4 19 9 15 5 -3 12 -1 16 5 3 5 0 10 -7 10 -8 0 -6 5 5 11 9 6 14
15 11 21 -4 6 -3 9 2 6 5 -3 14 0 21 7 10 11 10 15 0 18 -7 3 -5 6 4 6 9 1 20
8 23 17 3 8 10 12 16 9 6 -4 10 5 10 20 0 14 3 24 8 22 11 -8 29 17 26 36 -2
15 0 16 14 5 9 -7 13 -8 9 -2 -4 7 0 15 9 18 8 3 12 11 8 17 -5 8 -3 9 5 5 8
-5 14 0 18 13 3 11 8 19 12 17 4 -3 13 -1 21 5 10 6 11 9 3 9 -7 0 -13 4 -13
9 0 6 9 8 20 6 11 -2 21 0 21 6 1 5 2 15 3 22 0 6 6 12 13 12 7 0 18 6 25 14
11 12 10 13 -2 6 -9 -5 -12 -4 -7 1 5 5 14 9 20 9 7 1 11 7 9 14 -1 7 2 10 7
6 12 -7 33 29 23 39 -3 4 1 4 11 0 12 -4 20 1 26 17 5 13 10 18 10 10 1 -10 7
-7 20 7 10 12 23 22 29 22 5 0 20 13 33 29 13 16 27 27 31 25 4 -3 8 0 8 5 0
6 7 11 16 11 8 0 12 5 9 10 -3 6 -1 10 5 10 6 0 8 5 4 12 -4 7 -3 8 5 4 6 -4
8 -13 4 -19 -3 -7 6 0 21 15 16 15 32 25 37 22 5 -3 9 -1 9 4 0 5 11 15 25 22
13 7 22 17 19 21 -3 5 1 6 9 3 8 -3 17 2 21 11 3 9 10 13 16 10 5 -3 10 -1 10
5 0 6 5 8 10 5 6 -3 13 1 16 9 3 9 10 14 14 11 5 -3 11 -1 15 5 4 6 10 8 15 5
4 -3 10 2 14 10 3 8 12 15 21 15 8 0 15 5 15 10 0 6 9 10 20 10 11 0 23 7 26
15 4 8 10 12 15 9 6 -3 16 0 24 6 8 7 22 10 30 6 9 -3 13 -2 10 4 -6 9 8 14
28 11 4 0 7 4 7 10 0 5 5 7 10 4 6 -3 10 -2 10 3 0 5 21 15 48 22 26 8 50 17
53 22 3 5 15 10 27 13 11 2 29 8 40 14 11 6 22 7 26 4 3 -3 6 -1 6 5 0 7 3 11
8 10 7 -2 91 18 122 29 8 4 24 7 36 8 12 1 29 5 40 9 10 4 38 9 63 12 25 3 50
8 56 12 5 3 29 7 54 8 24 2 48 7 53 12 11 11 620 13 613 1z m-4310 -2638 c49
-22 99 -77 115 -127 30 -89 -12 -202 -92 -247 -94 -54 -184 -42 -260 34 -27
27 -48 56 -48 65 0 15 -9 16 -87 10 -190 -14 -189 -14 -202 -55 -32 -106 -159
-156 -260 -103 l-44 23 -137 -93 -138 -93 -4 -60 c-3 -33 -7 -66 -9 -74 -3
-10 44 -37 154 -88 l158 -73 25 29 c66 79 204 60 248 -33 57 -120 -49 -250
-176 -216 -47 13 -97 60 -105 101 -5 24 -25 36 -187 111 l-181 84 -34 -19
c-52 -31 -134 -29 -193 6 -26 15 -55 41 -65 57 -9 17 -22 30 -28 30 -6 0 -82
-16 -169 -35 -88 -19 -167 -35 -177 -35 -21 0 -39 68 -21 79 6 3 84 22 174 40
90 19 168 38 174 43 6 5 14 25 18 46 8 52 65 116 121 138 64 24 134 15 191
-25 l44 -31 134 93 134 92 -1 55 c0 109 77 190 182 190 50 0 122 -38 146 -78
l20 -33 90 6 c176 11 195 15 195 39 0 12 13 43 29 68 54 85 174 121 266 79z
m7083 -342 c51 -25 89 -78 100 -140 l7 -43 205 -28 c113 -14 208 -27 213 -27
9 -1 9 -63 -1 -77 -5 -7 -77 -1 -229 19 l-223 29 -35 -30 c-30 -27 -88 -52
-120 -52 -31 0 -90 25 -120 51 -96 85 -77 241 37 298 55 27 110 27 166 0z
m-4733 -1179 c3 -5 1 -10 -4 -10 -6 0 -11 5 -11 10 0 6 2 10 4 10 3 0 8 -4 11
-10z m3125 -174 c0 -3 -4 -8 -10 -11 -5 -3 -10 -1 -10 4 0 6 5 11 10 11 6 0
10 -2 10 -4z"/>
<path d="M9256 15807 c3 -10 9 -15 12 -12 3 3 0 11 -7 18 -10 9 -11 8 -5 -6z"/>
<path d="M9635 14851 c-3 -5 0 -13 6 -17 7 -4 9 -3 5 4 -3 5 0 13 6 15 9 4 10
6 1 6 -6 1 -14 -3 -18 -8z"/>
<path d="M9555 14640 c-3 -5 -1 -10 4 -10 6 0 11 5 11 10 0 6 -2 10 -4 10 -3
0 -8 -4 -11 -10z"/>
<path d="M12746 10693 c-3 -3 -6 -18 -6 -32 0 -18 3 -22 11 -14 6 6 18 9 25 6
8 -3 14 0 14 6 0 6 0 14 0 19 0 4 -3 7 -7 7 -5 0 -13 3 -19 7 -6 4 -14 5 -18
1z"/>
<path d="M9361 10447 c-13 -21 -12 -21 5 -5 10 10 16 20 13 22 -3 3 -11 -5
-18 -17z"/>
<path d="M11457 10394 c-1 -1 -22 -4 -47 -8 -104 -14 -125 -19 -132 -30 -5 -7
-8 -6 -8 4 0 11 -2 12 -8 3 -4 -7 -21 -14 -38 -17 -37 -4 -67 -16 -76 -30 -5
-7 -8 -6 -8 3 0 11 -6 8 -20 -7 -23 -24 -35 -29 -25 -9 4 6 0 4 -8 -5 -11 -14
-16 -15 -26 -5 -10 9 -12 9 -9 -2 2 -8 -6 -17 -17 -19 -11 -2 -28 -14 -37 -25
-13 -14 -18 -16 -18 -6 -1 11 -3 11 -13 -2 -7 -9 -20 -15 -29 -13 -10 1 -21
-3 -25 -8 -4 -7 -1 -8 8 -4 8 4 6 1 -3 -7 -10 -8 -14 -18 -10 -23 4 -4 -1 -3
-10 5 -15 11 -23 7 -60 -32 -24 -24 -51 -47 -60 -50 -10 -4 -18 -14 -18 -23 0
-10 -5 -14 -14 -11 -10 4 -13 0 -11 -14 2 -11 0 -17 -6 -13 -14 8 -41 -17 -35
-33 3 -8 2 -11 -3 -8 -6 3 -14 -2 -19 -11 -5 -9 -12 -15 -15 -15 -12 2 -45
-37 -39 -45 4 -4 0 -5 -9 -2 -12 5 -15 0 -14 -22 1 -22 -2 -27 -14 -22 -9 3
-13 2 -9 -3 4 -4 0 -14 -8 -22 -8 -9 -13 -21 -10 -29 3 -8 -2 -11 -13 -9 -10
2 -18 -3 -18 -10 0 -8 4 -12 9 -9 4 3 8 3 8 0 0 -3 -12 -12 -27 -20 -24 -13
-25 -15 -8 -16 18 -1 19 -1 3 -11 -10 -5 -18 -19 -18 -29 0 -10 -5 -22 -12
-26 -7 -5 -8 -2 -3 7 5 8 4 11 -1 6 -9 -8 -10 -12 -12 -55 -1 -13 -6 -21 -11
-18 -4 3 -8 -4 -7 -17 1 -13 -4 -21 -12 -19 -8 1 -11 -6 -8 -23 3 -14 1 -25
-3 -25 -3 0 -8 -9 -9 -20 -4 -44 -6 -50 -14 -50 -5 0 -6 -4 -3 -10 3 -5 3 -16
-2 -22 -13 -23 -14 -40 -15 -238 0 -206 2 -250 13 -250 4 0 6 -14 5 -31 -1
-17 4 -38 12 -45 8 -8 12 -24 9 -34 -3 -11 -1 -20 5 -20 5 0 6 -5 3 -10 -3 -6
0 -13 9 -16 8 -3 13 -14 11 -24 -2 -10 3 -21 11 -24 7 -3 11 -11 8 -19 -3 -8
2 -20 11 -27 8 -7 15 -23 15 -37 0 -13 4 -22 9 -19 5 4 7 -2 4 -13 -3 -11 2
-21 11 -24 9 -4 16 -13 16 -22 0 -8 5 -15 10 -15 6 0 10 -5 10 -11 0 -7 8 -18
18 -26 11 -10 12 -12 2 -8 -10 4 -9 2 3 -8 9 -8 17 -19 17 -26 0 -6 8 -11 18
-12 10 0 12 -3 4 -6 -8 -3 0 -16 23 -37 19 -18 32 -36 28 -40 -5 -4 -3 -7 2
-6 21 5 35 -1 35 -13 0 -14 27 -40 53 -50 9 -3 17 -12 17 -18 0 -7 8 -18 18
-26 9 -8 11 -11 3 -7 -9 4 -12 3 -7 -4 4 -6 14 -8 24 -5 9 3 14 3 10 -2 -9 -9
16 -35 34 -35 8 0 20 -9 28 -20 11 -15 17 -17 29 -7 9 6 13 8 9 3 -8 -10 14
-36 25 -29 4 2 7 -1 7 -7 0 -6 5 -8 10 -5 6 3 10 1 10 -4 0 -6 8 -11 18 -11 9
0 28 -9 42 -20 14 -11 32 -20 41 -20 8 0 25 -9 37 -20 24 -22 42 -26 42 -8 0
6 9 1 19 -11 10 -12 23 -21 27 -20 5 1 11 0 14 -1 3 -1 14 -3 25 -5 11 -2 31
-6 45 -10 14 -4 39 -7 55 -8 17 -1 36 -6 44 -11 18 -11 331 -12 339 0 4 5 29
10 55 11 27 1 56 5 65 9 10 4 28 9 42 11 13 2 30 9 37 15 7 5 17 7 22 4 5 -4
12 -2 16 4 4 6 11 8 16 5 5 -4 12 0 15 9 3 8 12 12 20 9 8 -3 14 0 14 6 0 6 8
11 19 11 10 0 24 7 31 15 11 13 15 13 21 3 7 -10 9 -9 9 5 0 9 5 18 10 18 6 1
14 2 20 3 5 0 17 8 27 16 19 17 27 20 44 20 5 0 7 5 3 12 -4 6 -3 8 3 5 6 -4
21 2 33 13 12 11 27 17 33 13 6 -4 8 0 4 11 -4 9 -3 15 1 12 10 -6 64 39 56
47 -3 3 4 8 15 12 12 3 19 9 17 13 -6 10 61 71 70 64 4 -4 4 1 1 11 -4 10 -3
16 2 13 5 -3 19 4 33 17 24 22 28 28 36 59 2 10 8 15 13 12 8 -4 13 11 7 19
-2 2 9 15 25 31 15 15 25 32 22 37 -4 5 1 12 10 15 9 4 14 13 11 20 -3 8 -2
14 2 14 5 0 18 18 30 40 12 23 17 38 11 34 -6 -3 -5 4 2 17 7 13 14 26 14 29
0 3 7 16 14 29 8 14 15 36 17 50 5 43 27 121 33 121 9 0 7 443 -2 458 -5 7
-10 25 -13 40 -4 27 -15 73 -24 100 -1 4 -2 11 -1 16 1 5 -6 17 -15 27 -9 11
-14 19 -9 19 4 0 2 6 -4 13 -6 8 -8 17 -4 20 3 4 0 7 -7 7 -7 0 -11 3 -7 6 3
3 -3 22 -14 41 -11 19 -16 39 -13 45 4 6 3 8 -2 5 -6 -3 -16 3 -23 15 -10 16
-10 19 1 13 7 -3 3 3 -10 14 -13 11 -24 24 -25 28 -1 4 -4 7 -7 6 -3 -1 -6 7
-7 17 -1 11 -11 29 -22 41 -11 12 -18 27 -14 32 3 6 2 7 -4 4 -12 -7 -44 28
-35 39 4 4 2 4 -5 1 -14 -8 -46 21 -38 34 4 5 -3 9 -14 9 -12 0 -20 6 -18 13
1 6 -6 11 -16 11 -15 -2 -16 1 -5 14 7 9 9 13 3 10 -12 -7 -37 17 -27 26 3 4
-2 4 -12 0 -13 -5 -17 -4 -13 3 4 6 0 14 -9 17 -9 3 -12 11 -8 18 5 7 2 9 -9
5 -9 -3 -18 0 -21 9 -3 8 -11 14 -17 14 -6 0 -19 8 -28 18 -15 17 -45 34 -64
36 -4 1 -12 8 -17 16 -5 8 -10 11 -10 7 0 -4 -10 -2 -22 5 -13 7 -27 12 -31
13 -4 0 -12 6 -16 14 -5 7 -14 10 -20 7 -6 -4 -14 0 -17 8 -3 9 -10 13 -16 10
-5 -3 -17 1 -27 10 -10 9 -22 16 -27 14 -5 -1 -19 3 -31 10 -16 9 -23 9 -23 2
0 -7 -6 -6 -14 3 -8 8 -28 13 -45 12 -16 -1 -28 2 -25 7 3 4 -15 8 -40 8 -25
0 -47 4 -51 9 -3 6 -13 10 -23 10 -9 0 -68 2 -130 3 -63 2 -114 2 -115 2z
m-582 -224 c-3 -5 -12 -10 -18 -10 -7 0 -6 4 3 10 19 12 23 12 15 0z"/>
<path d="M10805 10140 c-4 -6 -11 -7 -17 -4 -7 4 -8 2 -4 -5 6 -9 11 -9 22 0
14 11 18 19 10 19 -3 0 -8 -5 -11 -10z"/>
<path d="M7791 17678 c-1 -10 3 -18 8 -18 5 0 15 8 22 18 13 15 12 16 -3 4
-13 -10 -17 -10 -21 0 -4 8 -6 7 -6 -4z"/>
<path d="M5647 15239 c7 -7 15 -10 18 -7 3 3 -2 9 -12 12 -14 6 -15 5 -6 -5z"/>
<path d="M10366 13742 c-3 -5 1 -9 9 -9 8 0 12 4 9 9 -3 4 -7 8 -9 8 -2 0 -6
-4 -9 -8z"/>
<path d="M3015 13432 c-30 -2 -226 -25 -235 -27 -3 -1 -25 -5 -50 -9 -96 -17
-249 -59 -350 -97 -388 -146 -670 -427 -821 -818 -29 -76 -73 -227 -84 -292
-3 -19 -8 -41 -10 -49 -3 -8 -7 -33 -10 -55 -2 -22 -7 -57 -11 -79 -3 -21 -8
-57 -11 -80 -2 -22 -6 -464 -8 -981 -3 -875 -8 -1140 -21 -1240 -7 -54 -43
-236 -51 -255 -8 -20 -8 -20 -18 -55 -4 -16 -24 -64 -43 -105 -95 -204 -242
-346 -433 -420 -85 -33 -229 -66 -301 -69 -17 -1 -18 -25 -18 -351 l0 -350 33
-1 c46 -2 82 -7 169 -24 56 -11 175 -59 238 -95 264 -155 414 -468 436 -914 3
-61 7 -554 9 -1096 1 -542 5 -996 8 -1010 3 -14 10 -63 17 -110 73 -529 308
-911 702 -1141 139 -81 361 -162 528 -193 19 -3 46 -8 60 -11 14 -3 43 -8 65
-10 22 -3 51 -7 65 -10 33 -6 131 -14 258 -20 101 -6 102 -5 103 17 1 29 1
709 0 723 -1 6 -20 10 -44 11 -67 1 -172 13 -224 25 -343 80 -512 260 -587
624 -14 70 -19 102 -35 245 -5 41 -10 512 -10 1045 -1 534 -4 986 -6 1005 -2
19 -6 67 -9 105 -4 39 -9 77 -11 85 -2 8 -6 35 -9 60 -3 25 -8 54 -10 65 -76
365 -224 623 -461 800 -65 48 -208 122 -292 152 -29 10 -53 23 -53 30 0 6 24
20 53 31 331 124 571 379 691 732 41 122 60 209 91 420 4 25 9 304 11 620 9
1328 11 1536 17 1560 3 14 8 45 11 70 18 137 81 317 150 424 129 202 357 331
621 352 39 3 79 7 89 8 19 3 19 15 18 369 0 202 -1 374 -1 383 -1 13 -15 15
-93 12 -51 -2 -106 -4 -123 -6z"/>
<path d="M16444 13062 c1 -209 3 -382 6 -385 3 -3 41 -7 85 -11 44 -3 95 -10
113 -15 18 -5 33 -10 35 -9 13 1 86 -18 106 -28 14 -8 31 -14 38 -14 13 0 119
-59 166 -92 149 -105 259 -287 314 -518 16 -67 18 -78 32 -195 5 -38 10 -493
11 -1010 1 -517 3 -962 5 -989 10 -148 23 -256 41 -341 8 -38 17 -81 20 -95
11 -54 76 -235 109 -304 124 -259 334 -454 599 -557 39 -15 72 -34 74 -41 2
-9 -21 -22 -64 -38 -418 -147 -689 -528 -758 -1065 -4 -27 -9 -68 -13 -90 -3
-22 -7 -285 -9 -585 -2 -300 -6 -781 -8 -1070 -2 -289 -7 -543 -10 -565 -38
-226 -76 -355 -139 -467 -43 -77 -131 -177 -185 -210 -20 -12 -39 -25 -42 -28
-5 -6 -47 -27 -120 -58 -73 -31 -218 -60 -340 -67 -25 -2 -50 -3 -56 -4 -7 -1
-10 -114 -10 -374 l1 -372 75 1 c86 1 238 11 290 19 318 52 481 101 670 202
119 63 226 142 320 237 244 246 373 546 436 1021 3 28 8 325 10 660 8 1261 11
1561 18 1600 19 118 39 212 57 272 30 100 112 259 170 331 123 154 319 256
545 284 l94 11 0 349 c0 324 -1 348 -17 349 -28 1 -71 8 -150 24 -162 32 -317
115 -421 224 -150 156 -224 335 -278 666 -7 40 -10 359 -18 1555 -2 344 -6
641 -10 660 -3 19 -8 60 -11 90 -21 191 -91 433 -176 604 -100 200 -277 404
-449 518 -210 138 -499 240 -775 273 -27 3 -66 8 -85 10 -19 2 -94 7 -166 11
l-131 7 1 -381z"/>
<path d="M12860 12306 c0 -2 8 -10 18 -17 15 -13 16 -12 3 4 -13 16 -21 21
-21 13z"/>
<path d="M6365 11460 c-3 -6 1 -7 9 -4 18 7 21 14 7 14 -6 0 -13 -4 -16 -10z"/>
<path d="M14070 11196 c0 -2 7 -9 15 -16 9 -7 15 -8 15 -2 0 5 -7 12 -15 16
-8 3 -15 4 -15 2z"/>
<path d="M14185 11040 c3 -5 8 -10 11 -10 2 0 4 5 4 10 0 6 -5 10 -11 10 -5 0
-7 -4 -4 -10z"/>
<path d="M14465 5920 c-3 -5 -1 -10 4 -10 6 0 11 5 11 10 0 6 -2 10 -4 10 -3
0 -8 -4 -11 -10z"/>
<path d="M6620 5140 c0 -5 5 -10 11 -10 5 0 7 5 4 10 -3 6 -8 10 -11 10 -2 0
-4 -4 -4 -10z"/>
<path d="M12250 4665 c-19 -14 -45 -25 -57 -25 -13 0 -23 -1 -23 -3 0 -1 -27
-186 -60 -411 -33 -225 -60 -416 -60 -424 0 -13 3 -12 13 3 8 10 19 15 25 11
7 -4 12 0 13 11 0 11 3 13 6 5 4 -10 9 -9 20 5 8 10 12 12 8 5 -4 -7 9 -4 30
8 21 12 34 15 30 8 -4 -7 -1 -6 7 3 13 16 19 19 39 19 6 0 8 7 5 16 -5 14 -4
15 8 4 13 -10 19 -9 32 4 8 9 20 14 25 11 5 -4 9 -1 9 6 0 7 3 10 6 7 3 -4 17
0 31 7 15 8 30 12 35 9 4 -3 8 0 8 5 0 6 7 11 15 11 8 0 15 7 15 15 0 8 5 15
11 15 6 0 8 -7 5 -16 -4 -9 8 -3 26 15 17 17 38 31 45 31 7 0 13 5 13 11 0 5
4 8 9 4 6 -3 20 5 32 17 12 13 19 17 15 11 -4 -7 -2 -13 3 -13 6 0 11 5 11 10
0 6 7 10 15 10 8 0 15 5 15 10 0 6 9 10 20 10 11 0 20 5 20 10 0 6 7 10 16 10
8 0 12 4 9 10 -3 6 1 7 9 4 9 -4 18 1 22 10 3 9 10 13 15 10 5 -3 9 0 9 7 0 7
3 9 7 6 3 -4 15 1 26 10 10 10 22 18 26 18 3 0 5 4 3 8 -1 5 2 6 8 2 5 -3 13
0 16 9 3 8 14 13 25 11 10 -2 18 1 16 8 -1 6 4 11 11 12 7 0 17 6 21 14 5 8
14 10 22 5 10 -6 10 -3 -1 11 -8 10 -10 16 -4 12 7 -4 24 -1 39 7 l26 14 -53
30 c-284 160 -632 354 -642 357 -6 2 -27 -7 -46 -20z"/>
<path d="M13215 4469 c-4 -6 -5 -12 -2 -15 2 -3 7 2 10 11 7 17 1 20 -8 4z"/>
</g>
</svg>
